<svg width="396" height="170" viewBox="0 0 396 170" fill="none" xmlns="http://www.w3.org/2000/svg">
<g clip-path="url(#clip0_261_65211)">
<path d="M225.841 1.91815L203.432 106.658H176.339L198.743 1.91815H225.841ZM339.845 69.5484L354.106 30.2139L362.311 69.5484H339.845ZM370.072 106.658H395.133L373.269 1.91815H350.132C344.942 1.91815 340.541 4.9458 338.598 9.60326L297.947 106.658H326.393L332.047 91.024H366.806L370.072 106.658ZM299.358 72.4632C299.47 44.8194 261.12 43.2961 261.39 30.9473C261.465 27.18 265.05 23.1932 272.873 22.1715C276.772 21.6637 287.46 21.2688 299.602 26.8603L304.353 4.65119C297.841 2.27545 289.441 3.8147e-06 279.01 3.8147e-06C252.231 3.8147e-06 233.382 14.2419 233.219 34.6331C233.05 49.7025 246.678 58.1147 256.945 63.1357C267.501 68.2633 271.037 71.5543 271.005 76.149C270.93 83.176 262.581 86.2726 254.795 86.3979C241.168 86.6173 233.257 82.7246 226.951 79.7847L222.043 102.733C228.374 105.642 240.052 108.168 252.188 108.3C280.64 108.3 299.257 94.2335 299.358 72.4632ZM187.127 1.91815L143.223 106.658H114.576L92.9753 23.0679C91.659 17.9215 90.5244 16.0347 86.5314 13.8658C80.0247 10.3304 69.2681 7.02066 59.8027 4.95834L60.4484 1.91815H106.553C112.433 1.91815 117.717 5.82338 119.046 12.5933L130.461 73.2091L158.656 1.91815H187.127Z" fill="#0056A7" style="fill:#0056A7;fill:color(display-p3 0.0000 0.3373 0.6549);fill-opacity:1;"/>
<path d="M10.727 138.934H4.62152V152.58H10.727C13.2406 152.58 15.1713 152.06 16.5128 151.019C17.8605 149.985 18.5375 148.224 18.5375 145.735C18.5375 143.278 17.8605 141.535 16.5128 140.495C15.1713 139.448 13.2406 138.934 10.727 138.934ZM0.327637 168.815V135.467H11.3413C14.908 135.467 17.7476 136.314 19.8538 138.012C21.96 139.711 23.0131 142.269 23.0131 145.691C23.0131 149.139 21.96 151.715 19.8538 153.389C17.7476 155.075 14.908 155.915 11.3413 155.915H4.62152V168.815H0.327637Z" fill="#0056A7" style="fill:#0056A7;fill:color(display-p3 0.0000 0.3373 0.6549);fill-opacity:1;"/>
<path d="M32.748 134.151H28.8428V168.815H32.748V134.151Z" fill="#0056A7" style="fill:#0056A7;fill:color(display-p3 0.0000 0.3373 0.6549);fill-opacity:1;"/>
<path d="M54.2488 160.478V155.345C53.785 155.752 52.9575 156.116 51.7728 156.423C50.5881 156.724 49.1212 157.043 47.3598 157.363C45.8742 157.595 44.6644 158.034 43.7429 158.679C42.8215 159.319 42.3576 160.466 42.3576 162.102C42.3576 163.594 42.7901 164.697 43.6552 165.412C44.5202 166.133 45.7112 166.49 47.2282 166.49C48.695 166.49 49.9487 166.183 51.0018 165.568C52.0549 164.954 52.8635 164.189 53.4214 163.262C53.973 162.346 54.2488 161.412 54.2488 160.478ZM40.126 149.509L40.5586 145.691C41.4988 145.045 42.6648 144.506 44.0689 144.068C45.4793 143.629 47.015 143.409 48.6762 143.409C51.8668 143.409 54.2363 144.043 55.7909 145.296C57.3392 146.55 58.1165 148.631 58.1165 151.527V168.815H54.3805V164.076H54.2112C53.5656 165.919 52.5689 167.273 51.2274 168.138C49.8797 168.997 48.1998 169.423 46.1751 169.423C44.8023 169.423 43.5361 169.173 42.3827 168.665C41.2293 168.151 40.2953 167.38 39.5995 166.339C38.8911 165.299 38.5464 163.976 38.5464 162.365C38.5464 160.76 38.8786 159.463 39.5556 158.485C40.2263 157.501 41.1666 156.749 42.3827 156.222C43.5988 155.696 45.053 155.288 46.7518 154.993C48.8266 154.642 50.469 154.323 51.685 154.028C52.9011 153.74 53.7662 153.339 54.2927 152.843V151.703C54.2927 149.891 53.879 148.575 53.0453 147.753C52.2116 146.939 50.657 146.525 48.369 146.525C46.9085 146.525 45.4667 146.769 44.0501 147.277C42.6271 147.772 41.3484 148.518 40.2138 149.509H40.126Z" fill="#0056A7" style="fill:#0056A7;fill:color(display-p3 0.0000 0.3373 0.6549);fill-opacity:1;"/>
<path d="M70.7098 162.146C70.7098 163.732 71.042 164.785 71.719 165.324C72.3897 165.869 73.2673 166.139 74.3518 166.139C75.3422 166.139 76.2072 166.051 76.9406 165.875C77.6678 165.7 78.2695 165.499 78.7334 165.261H78.865L78.5203 168.552C78.0752 168.784 77.417 168.991 76.5457 169.166C75.6681 169.342 74.7717 169.423 73.8628 169.423C71.6689 169.423 69.945 168.909 68.6851 167.875C67.4314 166.835 66.7983 165.13 66.7983 162.76V147.277H62.2349L62.7614 144.682L66.7983 144.111V138.802L70.7098 138.232V144.024H78.2946L77.8119 147.277H70.7098V162.146Z" fill="#0056A7" style="fill:#0056A7;fill:color(display-p3 0.0000 0.3373 0.6549);fill-opacity:1;"/>
<path d="M87.296 144.024V168.815H83.3845V144.024H87.296ZM82.9019 137.968C82.9019 137.329 83.1275 136.796 83.5851 136.364C84.0364 135.944 84.6131 135.731 85.3215 135.731C86.0173 135.731 86.6065 135.944 87.0704 136.364C87.5405 136.796 87.7724 137.329 87.7724 137.968C87.7724 138.645 87.5405 139.184 87.0704 139.617C86.6065 140.037 86.0173 140.25 85.3215 140.25C84.6131 140.25 84.0364 140.037 83.5851 139.617C83.1275 139.184 82.9019 138.645 82.9019 137.968Z" fill="#0056A7" style="fill:#0056A7;fill:color(display-p3 0.0000 0.3373 0.6549);fill-opacity:1;"/>
<path d="M107.43 143.409C110.126 143.409 112.232 144.099 113.749 145.472C115.272 146.845 116.031 149.001 116.031 151.922V168.815H112.169V153.025C112.169 150.938 111.724 149.383 110.834 148.343C109.938 147.308 108.321 146.788 105.982 146.788C104.61 146.788 103.356 147.064 102.234 147.622C101.106 148.18 100.215 148.97 99.5573 149.991C98.8991 151.013 98.5669 152.229 98.5669 153.633V168.815H94.6616V144.024H98.3976V149.289H98.6107C99.0809 147.885 99.7892 146.757 100.742 145.892C101.689 145.027 102.76 144.4 103.945 143.999C105.13 143.61 106.29 143.409 107.43 143.409Z" fill="#0056A7" style="fill:#0056A7;fill:color(display-p3 0.0000 0.3373 0.6549);fill-opacity:1;"/>
<path d="M133.144 166.051C134.491 166.051 135.726 165.775 136.854 165.217C137.977 164.666 138.879 163.87 139.55 162.848C140.221 161.826 140.559 160.623 140.559 159.25V144.024H144.464V168.815H140.735V163.594H140.559C140.058 164.998 139.343 166.133 138.409 166.998C137.469 167.863 136.422 168.477 135.25 168.859C134.078 169.235 132.924 169.423 131.783 169.423C129.094 169.423 126.975 168.728 125.421 167.324C123.873 165.919 123.095 163.751 123.095 160.829V144.024H127V159.952C127 162.058 127.439 163.6 128.317 164.578C129.194 165.562 130.805 166.051 133.144 166.051Z" fill="#0056A7" style="fill:#0056A7;fill:color(display-p3 0.0000 0.3373 0.6549);fill-opacity:1;"/>
<path d="M172.24 149.377H172.415C172.885 147.941 173.587 146.794 174.528 145.936C175.455 145.071 176.502 144.431 177.662 144.024C178.815 143.616 179.962 143.409 181.103 143.409C183.767 143.409 185.811 144.13 187.246 145.559C188.675 146.995 189.396 149.158 189.396 152.054V168.815H185.497V152.843C185.497 150.737 185.102 149.201 184.331 148.236C183.554 147.277 181.993 146.788 179.655 146.788C177.637 146.788 175.951 147.365 174.584 148.524C173.224 149.678 172.547 151.352 172.547 153.552V168.815H168.641V152.843C168.641 150.737 168.253 149.201 167.457 148.236C166.667 147.277 165.106 146.788 162.768 146.788C161.445 146.788 160.242 147.058 159.164 147.597C158.079 148.142 157.227 148.926 156.594 149.947C155.973 150.969 155.653 152.173 155.653 153.552V168.815H151.748V144.024H155.478V149.377H155.697C156.167 147.941 156.851 146.794 157.759 145.936C158.662 145.071 159.684 144.431 160.812 144.024C161.934 143.616 163.069 143.409 164.21 143.409C166.435 143.409 168.228 143.898 169.582 144.882C170.942 145.86 171.832 147.359 172.24 149.377Z" fill="#0056A7" style="fill:#0056A7;fill:color(display-p3 0.0000 0.3373 0.6549);fill-opacity:1;"/>
<path d="M219.278 165.524C221.798 165.524 223.603 165.01 224.694 163.97C225.791 162.929 226.343 161.356 226.343 159.25C226.343 157.118 225.766 155.526 224.632 154.492C223.491 153.451 221.704 152.931 219.278 152.931H210.546V165.524H219.278ZM218.664 138.758H210.546V149.772H218.664C222.789 149.772 224.851 147.916 224.851 144.199C224.851 142.325 224.324 140.952 223.271 140.075C222.218 139.197 220.682 138.758 218.664 138.758ZM206.29 168.815V135.467H219.717C222.638 135.467 224.97 136.22 226.719 137.724C228.455 139.235 229.327 141.215 229.327 143.673C229.327 145.603 228.693 147.214 227.44 148.499C226.18 149.791 224.632 150.581 222.789 150.869V151.001C225.189 151.264 227.12 152.129 228.599 153.589C230.079 155.056 230.812 157.012 230.812 159.469C230.812 161.224 230.442 162.81 229.721 164.233C228.988 165.65 227.879 166.772 226.387 167.587C224.895 168.408 222.964 168.815 220.595 168.815H206.29Z" fill="#0056A7" style="fill:#0056A7;fill:color(display-p3 0.0000 0.3373 0.6549);fill-opacity:1;"/>
<path d="M247.492 166.051C248.84 166.051 250.075 165.775 251.197 165.217C252.325 164.666 253.228 163.87 253.899 162.848C254.575 161.826 254.908 160.623 254.908 159.25V144.024H258.813V168.815H255.083V163.594H254.908C254.406 164.998 253.692 166.133 252.758 166.998C251.817 167.863 250.764 168.477 249.598 168.859C248.426 169.235 247.273 169.423 246.132 169.423C243.436 169.423 241.318 168.728 239.769 167.324C238.215 165.919 237.444 163.751 237.444 160.829V144.024H241.349V159.952C241.349 162.058 241.782 163.6 242.665 164.578C243.537 165.562 245.148 166.051 247.492 166.051Z" fill="#0056A7" style="fill:#0056A7;fill:color(display-p3 0.0000 0.3373 0.6549);fill-opacity:1;"/>
<path d="M265.389 150.737C265.389 149.101 265.796 147.741 266.599 146.656C267.401 145.572 268.492 144.763 269.871 144.218C271.243 143.679 272.823 143.409 274.61 143.409C276.127 143.409 277.481 143.56 278.665 143.848C279.85 144.143 280.746 144.431 281.367 144.726L281.536 148.28H281.411C280.909 147.929 280.264 147.616 279.474 147.333C278.684 147.058 277.838 146.838 276.935 146.682C276.02 146.519 275.193 146.437 274.434 146.437C272.767 146.437 271.45 146.688 270.485 147.183C269.513 147.678 269.031 148.662 269.031 150.123C269.031 151 269.244 151.696 269.67 152.21C270.096 152.724 270.723 153.138 271.563 153.458C272.391 153.784 273.419 154.116 274.654 154.467C276.315 154.962 277.781 155.439 279.041 155.896C280.295 156.347 281.279 156.993 282.006 157.846C282.721 158.698 283.072 159.952 283.072 161.619C283.072 164.164 282.245 166.101 280.577 167.43C278.904 168.765 276.609 169.423 273.682 169.423C272.021 169.423 270.46 169.242 269.012 168.884C267.564 168.515 266.367 168.038 265.439 167.455L265.125 163.638H265.263C266.254 164.54 267.545 165.236 269.125 165.7C270.704 166.17 272.209 166.402 273.644 166.402C275.631 166.402 277.092 166.082 278.032 165.437C278.966 164.791 279.43 163.769 279.43 162.365C279.43 161.456 279.198 160.76 278.728 160.259C278.264 159.764 277.581 159.344 276.691 159.012C275.794 158.673 274.685 158.309 273.337 157.933C271.839 157.495 270.498 157.05 269.294 156.598C268.097 156.147 267.144 155.476 266.442 154.599C265.746 153.721 265.389 152.436 265.389 150.737Z" fill="#0056A7" style="fill:#0056A7;fill:color(display-p3 0.0000 0.3373 0.6549);fill-opacity:1;"/>
<path d="M292.644 144.024V168.815H288.739V144.024H292.644ZM288.262 137.968C288.262 137.329 288.488 136.796 288.939 136.364C289.391 135.944 289.967 135.731 290.669 135.731C291.378 135.731 291.954 135.944 292.431 136.364C292.895 136.796 293.127 137.329 293.127 137.968C293.127 138.645 292.895 139.184 292.431 139.617C291.954 140.037 291.378 140.25 290.669 140.25C289.967 140.25 289.391 140.037 288.939 139.617C288.488 139.184 288.262 138.645 288.262 137.968Z" fill="#0056A7" style="fill:#0056A7;fill:color(display-p3 0.0000 0.3373 0.6549);fill-opacity:1;"/>
<path d="M312.784 143.409C315.474 143.409 317.58 144.099 319.097 145.472C320.626 146.845 321.385 149.001 321.385 151.922V168.815H317.523V153.025C317.523 150.938 317.072 149.383 316.188 148.343C315.292 147.308 313.675 146.788 311.33 146.788C309.957 146.788 308.704 147.064 307.588 147.622C306.46 148.18 305.563 148.97 304.905 149.991C304.247 151.013 303.921 152.229 303.921 153.633V168.815H300.016V144.024H303.739V149.289H303.958C304.435 147.885 305.143 146.757 306.09 145.892C307.043 145.027 308.114 144.4 309.293 143.999C310.478 143.61 311.644 143.409 312.784 143.409Z" fill="#0056A7" style="fill:#0056A7;fill:color(display-p3 0.0000 0.3373 0.6549);fill-opacity:1;"/>
<path d="M338.893 146.393C336.692 146.393 334.925 147.064 333.577 148.412C332.235 149.759 331.414 151.634 331.12 154.028H346.082V153.589C346.082 152.129 345.863 150.863 345.431 149.797C344.985 148.725 344.246 147.891 343.212 147.29C342.171 146.694 340.735 146.393 338.893 146.393ZM339.852 166.27C342.083 166.27 343.889 166.001 345.274 165.462C346.665 164.916 347.913 164.196 349.029 163.287H349.116L348.765 166.841C348.032 167.455 346.891 168.038 345.337 168.596C343.788 169.154 341.858 169.423 339.544 169.423C337.031 169.423 334.831 168.878 332.938 167.762C331.057 166.647 329.584 165.117 328.531 163.155C327.478 161.193 326.951 158.961 326.951 156.442C326.951 153.928 327.471 151.69 328.512 149.728C329.546 147.772 330.969 146.23 332.768 145.102C334.567 143.974 336.598 143.409 338.849 143.409C341.45 143.409 343.563 143.873 345.186 144.795C346.81 145.716 347.994 147.001 348.74 148.65C349.486 150.305 349.862 152.229 349.862 154.423C349.862 154.718 349.844 155.069 349.818 155.476C349.787 155.89 349.743 156.253 349.681 156.573H330.944C330.944 156.604 330.95 156.636 330.969 156.661C330.982 156.686 330.976 156.717 330.944 156.749C331.007 159.707 331.828 162.027 333.408 163.732C334.987 165.424 337.131 166.27 339.852 166.27Z" fill="#0056A7" style="fill:#0056A7;fill:color(display-p3 0.0000 0.3373 0.6549);fill-opacity:1;"/>
<path d="M354.864 150.737C354.864 149.101 355.266 147.741 356.074 146.656C356.877 145.572 357.967 144.763 359.34 144.218C360.713 143.679 362.292 143.409 364.079 143.409C365.596 143.409 366.95 143.56 368.141 143.848C369.319 144.143 370.222 144.431 370.836 144.726L371.012 148.28H370.88C370.379 147.929 369.739 147.616 368.95 147.333C368.16 147.058 367.313 146.838 366.405 146.682C365.496 146.519 364.662 146.437 363.903 146.437C362.236 146.437 360.92 146.688 359.954 147.183C358.989 147.678 358.506 148.662 358.506 150.123C358.506 151 358.719 151.696 359.139 152.21C359.572 152.724 360.193 153.138 361.033 153.458C361.866 153.784 362.894 154.116 364.123 154.467C365.79 154.962 367.251 155.439 368.511 155.896C369.764 156.347 370.755 156.993 371.476 157.846C372.19 158.698 372.548 159.952 372.548 161.619C372.548 164.164 371.714 166.101 370.047 167.43C368.379 168.765 366.085 169.423 363.158 169.423C361.49 169.423 359.929 169.242 358.488 168.884C357.033 168.515 355.842 168.038 354.908 167.455L354.601 163.638H354.733C355.723 164.54 357.014 165.236 358.594 165.7C360.174 166.17 361.678 166.402 363.114 166.402C365.101 166.402 366.568 166.082 367.502 165.437C368.442 164.791 368.906 163.769 368.906 162.365C368.906 161.456 368.674 160.76 368.197 160.259C367.733 159.764 367.056 159.344 366.16 159.012C365.27 158.673 364.154 158.309 362.806 157.933C361.315 157.495 359.967 157.05 358.77 156.598C357.566 156.147 356.62 155.476 355.917 154.599C355.215 153.721 354.864 152.436 354.864 150.737Z" fill="#0056A7" style="fill:#0056A7;fill:color(display-p3 0.0000 0.3373 0.6549);fill-opacity:1;"/>
<path d="M377.412 150.737C377.412 149.101 377.82 147.741 378.628 146.656C379.431 145.572 380.515 144.763 381.894 144.218C383.267 143.679 384.847 143.409 386.633 143.409C388.15 143.409 389.504 143.56 390.689 143.848C391.873 144.143 392.77 144.431 393.39 144.726L393.56 148.28H393.434C392.933 147.929 392.287 147.616 391.497 147.333C390.708 147.058 389.868 146.838 388.959 146.682C388.05 146.519 387.216 146.437 386.458 146.437C384.79 146.437 383.474 146.688 382.508 147.183C381.537 147.678 381.054 148.662 381.054 150.123C381.054 151 381.267 151.696 381.694 152.21C382.12 152.724 382.747 153.138 383.587 153.458C384.414 153.784 385.442 154.116 386.677 154.467C388.338 154.962 389.805 155.439 391.065 155.896C392.319 156.347 393.303 156.993 394.03 157.846C394.744 158.698 395.102 159.952 395.102 161.619C395.102 164.164 394.268 166.101 392.601 167.43C390.927 168.765 388.633 169.423 385.705 169.423C384.044 169.423 382.483 169.242 381.035 168.884C379.587 168.515 378.39 168.038 377.462 167.455L377.149 163.638H377.287C378.277 164.54 379.569 165.236 381.148 165.7C382.728 166.17 384.232 166.402 385.668 166.402C387.655 166.402 389.115 166.082 390.056 165.437C390.99 164.791 391.454 163.769 391.454 162.365C391.454 161.456 391.222 160.76 390.751 160.259C390.288 159.764 389.611 159.344 388.714 159.012C387.818 158.673 386.708 158.309 385.361 157.933C383.869 157.495 382.521 157.05 381.317 156.598C380.12 156.147 379.167 155.476 378.465 154.599C377.77 153.721 377.412 152.436 377.412 150.737Z" fill="#0056A7" style="fill:#0056A7;fill:color(display-p3 0.0000 0.3373 0.6549);fill-opacity:1;"/>
</g>
<defs>
<clipPath id="clip0_261_65211">
<rect width="395.664" height="170" fill="white" style="fill:white;fill-opacity:1;" transform="translate(0.327637)"/>
</clipPath>
</defs>
</svg>
