<svg width="93" height="40" viewBox="0 0 93 40" fill="none" xmlns="http://www.w3.org/2000/svg">
<g clip-path="url(#clip0_728_20724)">
<path d="M53.0019 0.451328L47.735 25.0959H41.3677L46.633 0.451328H53.0019ZM79.7958 16.3643L83.1475 7.10915L85.076 16.3643H79.7958ZM86.8998 25.0959H92.7899L87.6512 0.451328H82.2134C80.9936 0.451328 79.9594 1.16372 79.5027 2.25959L69.9487 25.0959H76.6342L77.9631 21.4174H86.1323L86.8998 25.0959ZM70.2801 17.0502C70.3067 10.5457 61.2933 10.1873 61.3567 7.28172C61.3744 6.39529 62.2171 5.45723 64.0557 5.21682C64.972 5.09735 67.4839 5.00443 70.3376 6.32006L71.4543 1.0944C69.9236 0.535399 67.9495 0 65.498 0C59.2043 0 54.7742 3.35104 54.7359 8.14897C54.6961 11.6947 57.899 13.6741 60.3121 14.8555C62.7931 16.062 63.624 16.8363 63.6166 17.9174C63.599 19.5708 61.6366 20.2994 59.8068 20.3289C56.604 20.3805 54.7447 19.4646 53.2627 18.7729L52.1091 24.1726C53.5971 24.857 56.3417 25.4513 59.194 25.4823C65.881 25.4823 70.2566 22.1726 70.2801 17.0502ZM43.9031 0.451328L33.5845 25.0959H26.8518L21.7749 5.42773C21.4656 4.21682 21.1989 3.77286 20.2604 3.26254C18.7312 2.43068 16.2031 1.65192 13.9785 1.16667L14.1303 0.451328H24.966C26.3479 0.451328 27.5898 1.37021 27.9022 2.96313L30.585 17.2257L37.2116 0.451328H43.9031Z" fill="white" style="fill:white;fill-opacity:1;"/>
<path d="M2.44412 32.6901H1.00917V35.9011H2.44412C3.03489 35.9011 3.48865 35.7786 3.80392 35.5338C4.12067 35.2904 4.27978 34.876 4.27978 34.2904C4.27978 33.7123 4.12067 33.3022 3.80392 33.0574C3.48865 32.8111 3.03489 32.6901 2.44412 32.6901ZM0 39.7211V31.8745H2.5885C3.42677 31.8745 4.09415 32.0736 4.58917 32.4733C5.08418 32.873 5.33168 33.4748 5.33168 34.2801C5.33168 35.0913 5.08418 35.6975 4.58917 36.0913C4.09415 36.4881 3.42677 36.6857 2.5885 36.6857H1.00917V39.7211H0Z" fill="white" style="fill:white;fill-opacity:1;"/>
<path d="M7.61998 31.5649H6.70215V39.7213H7.61998V31.5649Z" fill="white" style="fill:white;fill-opacity:1;"/>
<path d="M12.6729 37.7594V36.5514C12.5639 36.6473 12.3694 36.7328 12.091 36.8051C11.8125 36.8759 11.4678 36.9511 11.0538 37.0264C10.7046 37.0809 10.4203 37.1842 10.2037 37.3361C9.98718 37.4865 9.87816 37.7564 9.87816 38.1414C9.87816 38.4924 9.97981 38.752 10.1831 38.9202C10.3864 39.0898 10.6663 39.1738 11.0229 39.1738C11.3676 39.1738 11.6623 39.1016 11.9098 38.957C12.1573 38.8125 12.3473 38.6325 12.4784 38.4143C12.6081 38.1989 12.6729 37.9792 12.6729 37.7594ZM9.35368 35.1783L9.45533 34.28C9.67632 34.1281 9.95035 34.0013 10.2804 33.898C10.6118 33.7948 10.9728 33.7432 11.3632 33.7432C12.1131 33.7432 12.67 33.8921 13.0353 34.1871C13.3992 34.4821 13.5819 34.9718 13.5819 35.6532V39.721H12.7038V38.606H12.6641C12.5123 39.0396 12.2781 39.3582 11.9628 39.5618C11.6461 39.7638 11.2512 39.8641 10.7754 39.8641C10.4527 39.8641 10.1551 39.8051 9.88405 39.6856C9.61297 39.5647 9.39346 39.3833 9.22993 39.1384C9.06345 38.8936 8.98242 38.5824 8.98242 38.2033C8.98242 37.8258 9.0605 37.5205 9.21961 37.2904C9.37725 37.0588 9.59824 36.8818 9.88405 36.7579C10.1699 36.634 10.5117 36.5382 10.9109 36.4688C11.3985 36.3862 11.7845 36.311 12.0703 36.2417C12.3562 36.1738 12.5595 36.0794 12.6832 35.9629V35.6945C12.6832 35.2682 12.586 34.9585 12.39 34.7653C12.1941 34.5735 11.8287 34.4762 11.291 34.4762C10.9477 34.4762 10.6089 34.5337 10.2759 34.6532C9.94151 34.7697 9.64096 34.9452 9.37431 35.1783H9.35368Z" fill="white" style="fill:white;fill-opacity:1;"/>
<path d="M16.5416 38.1518C16.5416 38.5249 16.6197 38.7727 16.7788 38.8995C16.9365 39.0279 17.1427 39.0913 17.3976 39.0913C17.6304 39.0913 17.8337 39.0706 18.006 39.0293C18.1769 38.988 18.3184 38.9408 18.4274 38.8848H18.4583L18.3773 39.6591C18.2727 39.7137 18.118 39.7624 17.9132 39.8037C17.707 39.845 17.4963 39.8641 17.2827 39.8641C16.767 39.8641 16.3619 39.7432 16.0658 39.4998C15.7711 39.255 15.6223 38.8538 15.6223 38.2963V34.6532H14.5498L14.6736 34.0426L15.6223 33.9084V32.6591L16.5416 32.5249V33.8877H18.3243L18.2108 34.6532H16.5416V38.1518Z" fill="white" style="fill:white;fill-opacity:1;"/>
<path d="M20.44 33.8879V39.7212H19.5207V33.8879H20.44ZM19.4072 32.4631C19.4072 32.3126 19.4603 32.1873 19.5678 32.0855C19.6739 31.9867 19.8094 31.9365 19.9759 31.9365C20.1394 31.9365 20.2779 31.9867 20.3869 32.0855C20.4974 32.1873 20.5519 32.3126 20.5519 32.4631C20.5519 32.6224 20.4974 32.7492 20.3869 32.851C20.2779 32.9498 20.1394 32.9999 19.9759 32.9999C19.8094 32.9999 19.6739 32.9498 19.5678 32.851C19.4603 32.7492 19.4072 32.6224 19.4072 32.4631Z" fill="white" style="fill:white;fill-opacity:1;"/>
<path d="M25.1719 33.7432C25.8054 33.7432 26.3004 33.9054 26.6569 34.2284C27.0149 34.5514 27.1932 35.0588 27.1932 35.7461V39.721H26.2857V36.0057C26.2857 35.5146 26.1811 35.1488 25.9719 34.9039C25.7612 34.6606 25.3811 34.5381 24.8316 34.5381C24.5089 34.5381 24.2143 34.603 23.9506 34.7343C23.6854 34.8656 23.4762 35.0514 23.3215 35.2918C23.1668 35.5322 23.0887 35.8184 23.0887 36.1488V39.721H22.1709V33.8877H23.049V35.1266H23.099C23.2095 34.7963 23.376 34.5308 23.5999 34.3272C23.8224 34.1237 24.0743 33.9762 24.3528 33.8818C24.6312 33.7904 24.9038 33.7432 25.1719 33.7432Z" fill="white" style="fill:white;fill-opacity:1;"/>
<path d="M31.2151 39.0706C31.5319 39.0706 31.8221 39.0057 32.0873 38.8744C32.351 38.7446 32.5632 38.5573 32.7208 38.3169C32.8784 38.0765 32.958 37.7933 32.958 37.4703V33.8877H33.8758V39.721H32.9992V38.4924H32.958C32.8401 38.8228 32.6722 39.0898 32.4527 39.2933C32.2317 39.4968 31.9856 39.6414 31.7101 39.7314C31.4346 39.8199 31.1636 39.8641 30.8954 39.8641C30.2634 39.8641 29.7655 39.7004 29.4001 39.37C29.0362 39.0396 28.8535 38.5293 28.8535 37.842V33.8877H29.7714V37.6355C29.7714 38.1311 29.8745 38.4939 30.0807 38.724C30.287 38.9555 30.6656 39.0706 31.2151 39.0706Z" fill="white" style="fill:white;fill-opacity:1;"/>
<path d="M40.4039 35.1473H40.4452C40.5557 34.8095 40.7207 34.5396 40.9417 34.3376C41.1597 34.134 41.4057 33.9836 41.6783 33.8877C41.9494 33.7918 42.219 33.7432 42.4871 33.7432C43.1132 33.7432 43.5935 33.9128 43.9309 34.2491C44.2668 34.5868 44.4362 35.0957 44.4362 35.7771V39.721H43.5199V35.9629C43.5199 35.4674 43.427 35.106 43.2458 34.8789C43.0631 34.6532 42.6963 34.5381 42.1468 34.5381C41.6724 34.5381 41.2761 34.6738 40.9549 34.9467C40.6352 35.2181 40.4761 35.6119 40.4761 36.1296V39.721H39.5583V35.9629C39.5583 35.4674 39.467 35.106 39.2798 34.8789C39.0942 34.6532 38.7274 34.5381 38.1779 34.5381C37.867 34.5381 37.5841 34.6016 37.3307 34.7284C37.0759 34.8567 36.8755 35.0411 36.7267 35.2815C36.5809 35.5219 36.5057 35.8051 36.5057 36.1296V39.721H35.5879V33.8877H36.4645V35.1473H36.516C36.6265 34.8095 36.7871 34.5396 37.0007 34.3376C37.2129 34.134 37.453 33.9836 37.7182 33.8877C37.9819 33.7918 38.2486 33.7432 38.5167 33.7432C39.0397 33.7432 39.4611 33.8582 39.7793 34.0898C40.099 34.3199 40.3082 34.6724 40.4039 35.1473Z" fill="white" style="fill:white;fill-opacity:1;"/>
<path d="M51.4588 38.9468C52.0511 38.9468 52.4754 38.8258 52.7317 38.581C52.9895 38.3362 53.1192 37.966 53.1192 37.4704C53.1192 36.9689 52.9836 36.5943 52.717 36.3509C52.4488 36.1061 52.029 35.9837 51.4588 35.9837H49.4066V38.9468H51.4588ZM51.3144 32.6488H49.4066V35.2403H51.3144C52.2838 35.2403 52.7685 34.8037 52.7685 33.9291C52.7685 33.4881 52.6448 33.1651 52.3973 32.9586C52.1498 32.7521 51.7888 32.6488 51.3144 32.6488ZM48.4062 39.7211V31.8745H51.5619C52.2485 31.8745 52.7965 32.0515 53.2076 32.4055C53.6157 32.7609 53.8204 33.227 53.8204 33.8052C53.8204 34.2595 53.6716 34.6385 53.377 34.9409C53.0809 35.2447 52.717 35.4306 52.2838 35.4984V35.5294C52.8481 35.5913 53.3019 35.7949 53.6495 36.1385C53.9972 36.4837 54.1696 36.9438 54.1696 37.522C54.1696 37.935 54.0827 38.3081 53.9133 38.643C53.7409 38.9763 53.4801 39.2403 53.1295 39.432C52.7788 39.6253 52.3251 39.7211 51.7682 39.7211H48.4062Z" fill="white" style="fill:white;fill-opacity:1;"/>
<path d="M58.0901 39.0706C58.4069 39.0706 58.6971 39.0057 58.9608 38.8744C59.226 38.7446 59.4382 38.5573 59.5958 38.3169C59.7549 38.0765 59.833 37.7933 59.833 37.4703V33.8877H60.7508V39.721H59.8742V38.4924H59.833C59.7151 38.8228 59.5472 39.0898 59.3277 39.2933C59.1067 39.4968 58.8592 39.6414 58.5851 39.7314C58.3096 39.8199 58.0386 39.8641 57.7704 39.8641C57.1369 39.8641 56.639 39.7004 56.2751 39.37C55.9097 39.0396 55.7285 38.5293 55.7285 37.842V33.8877H56.6464V37.6355C56.6464 38.1311 56.748 38.4939 56.9557 38.724C57.1605 38.9555 57.5391 39.0706 58.0901 39.0706Z" fill="white" style="fill:white;fill-opacity:1;"/>
<path d="M62.2963 35.4674C62.2963 35.0824 62.392 34.7623 62.5806 34.5072C62.7692 34.252 63.0255 34.0617 63.3496 33.9334C63.6723 33.8066 64.0435 33.7432 64.4634 33.7432C64.8199 33.7432 65.1381 33.7786 65.4166 33.8464C65.695 33.9157 65.9057 33.9836 66.0516 34.0529L66.0913 34.8892H66.0619C65.944 34.8066 65.7923 34.7328 65.6066 34.6665C65.421 34.6016 65.2221 34.5499 65.01 34.5131C64.7949 34.4747 64.6004 34.4556 64.4221 34.4556C64.0303 34.4556 63.7209 34.5145 63.494 34.6311C63.2656 34.7476 63.1522 34.9792 63.1522 35.3228C63.1522 35.5293 63.2023 35.693 63.3025 35.814C63.4027 35.9349 63.55 36.0322 63.7474 36.1075C63.9419 36.1842 64.1835 36.2623 64.4737 36.3449C64.8641 36.4615 65.2089 36.5735 65.505 36.6812C65.7996 36.7874 66.0309 36.9393 66.2018 37.1399C66.3698 37.3405 66.4523 37.6355 66.4523 38.0278C66.4523 38.6266 66.2578 39.0824 65.8659 39.3951C65.4726 39.7092 64.9334 39.8641 64.2454 39.8641C63.8549 39.8641 63.4881 39.8213 63.1478 39.7373C62.8075 39.6502 62.5261 39.5382 62.308 39.401L62.2344 38.5028H62.2668C62.4996 38.7151 62.803 38.8789 63.1743 38.988C63.5456 39.0986 63.8991 39.1532 64.2365 39.1532C64.7035 39.1532 65.0468 39.078 65.2678 38.9261C65.4873 38.7741 65.5963 38.5337 65.5963 38.2033C65.5963 37.9895 65.5418 37.8258 65.4313 37.7078C65.3223 37.5912 65.1617 37.4924 64.9525 37.4143C64.7418 37.3346 64.4811 37.2491 64.1643 37.1606C63.8122 37.0573 63.4969 36.9526 63.2141 36.8464C62.9327 36.7402 62.7088 36.5824 62.5438 36.3759C62.3802 36.1694 62.2963 35.8671 62.2963 35.4674Z" fill="white" style="fill:white;fill-opacity:1;"/>
<path d="M68.7017 33.8879V39.7212H67.7838V33.8879H68.7017ZM67.6719 32.4631C67.6719 32.3126 67.7249 32.1873 67.831 32.0855C67.9371 31.9867 68.0726 31.9365 68.2376 31.9365C68.4041 31.9365 68.5396 31.9867 68.6516 32.0855C68.7606 32.1873 68.8151 32.3126 68.8151 32.4631C68.8151 32.6224 68.7606 32.7492 68.6516 32.851C68.5396 32.9498 68.4041 32.9999 68.2376 32.9999C68.0726 32.9999 67.9371 32.9498 67.831 32.851C67.7249 32.7492 67.6719 32.6224 67.6719 32.4631Z" fill="white" style="fill:white;fill-opacity:1;"/>
<path d="M73.4356 33.7432C74.0676 33.7432 74.5626 33.9054 74.9191 34.2284C75.2786 34.5514 75.4569 35.0588 75.4569 35.7461V39.721H74.5494V36.0057C74.5494 35.5146 74.4433 35.1488 74.2356 34.9039C74.0249 34.6606 73.6448 34.5381 73.0938 34.5381C72.7711 34.5381 72.4765 34.603 72.2143 34.7343C71.9491 34.8656 71.7384 35.0514 71.5837 35.2918C71.429 35.5322 71.3524 35.8184 71.3524 36.1488V39.721H70.4346V33.8877H71.3097V35.1266H71.3612C71.4732 34.7963 71.6397 34.5308 71.8621 34.3272C72.0861 34.1237 72.338 33.9762 72.615 33.8818C72.8934 33.7904 73.1674 33.7432 73.4356 33.7432Z" fill="white" style="fill:white;fill-opacity:1;"/>
<path d="M79.5712 34.4452C79.0541 34.4452 78.6386 34.603 78.3219 34.9202C78.0066 35.2373 77.8136 35.6783 77.7444 36.2417H81.261V36.1384C81.261 35.7948 81.2094 35.4969 81.1078 35.2461C81.0032 34.9939 80.8293 34.7977 80.5863 34.6561C80.3417 34.516 80.0043 34.4452 79.5712 34.4452ZM79.7966 39.1222C80.3211 39.1222 80.7454 39.0588 81.071 38.932C81.398 38.8036 81.6912 38.634 81.9534 38.4202H81.9741L81.8916 39.2564C81.7192 39.401 81.4511 39.5382 81.0857 39.6694C80.7218 39.8007 80.268 39.8641 79.7244 39.8641C79.1336 39.8641 78.6165 39.7358 78.1716 39.4733C77.7296 39.2107 77.3834 38.8508 77.1359 38.3892C76.8884 37.9275 76.7646 37.4025 76.7646 36.8095C76.7646 36.2181 76.8869 35.6915 77.1315 35.2299C77.3746 34.7697 77.709 34.4069 78.1318 34.1414C78.5546 33.8759 79.032 33.7432 79.5609 33.7432C80.1723 33.7432 80.6688 33.8523 81.0503 34.0691C81.4319 34.2859 81.7103 34.5883 81.8857 34.9762C82.061 35.3656 82.1494 35.8184 82.1494 36.3346C82.1494 36.4039 82.145 36.4865 82.1391 36.5824C82.1317 36.6797 82.1214 36.7653 82.1066 36.8405H77.7031C77.7031 36.8479 77.7046 36.8553 77.709 36.8612C77.712 36.8671 77.7105 36.8744 77.7031 36.8818C77.7178 37.578 77.9108 38.1237 78.2821 38.5249C78.6534 38.9231 79.1572 39.1222 79.7966 39.1222Z" fill="white" style="fill:white;fill-opacity:1;"/>
<path d="M83.3255 35.4674C83.3255 35.0824 83.4198 34.7623 83.6099 34.5072C83.7985 34.252 84.0548 34.0617 84.3774 33.9334C84.7001 33.8066 85.0713 33.7432 85.4912 33.7432C85.8477 33.7432 86.166 33.7786 86.4459 33.8464C86.7229 33.9157 86.935 33.9836 87.0794 34.0529L87.1206 34.8892H87.0897C86.9718 34.8066 86.8216 34.7328 86.6359 34.6665C86.4503 34.6016 86.2514 34.5499 86.0378 34.5131C85.8242 34.4747 85.6282 34.4556 85.45 34.4556C85.0581 34.4556 84.7487 34.5145 84.5218 34.6311C84.2949 34.7476 84.1815 34.9792 84.1815 35.3228C84.1815 35.5293 84.2316 35.693 84.3303 35.814C84.432 35.9349 84.5778 36.0322 84.7752 36.1075C84.9712 36.1842 85.2128 36.2623 85.5015 36.3449C85.8934 36.4615 86.2367 36.5735 86.5328 36.6812C86.8275 36.7874 87.0602 36.9393 87.2297 37.1399C87.3976 37.3405 87.4816 37.6355 87.4816 38.0278C87.4816 38.6266 87.2856 39.0824 86.8938 39.3951C86.5019 39.7092 85.9627 39.8641 85.2747 39.8641C84.8828 39.8641 84.5159 39.8213 84.1771 39.7373C83.8353 39.6502 83.5554 39.5382 83.3359 39.401L83.2637 38.5028H83.2946C83.5274 38.7151 83.8309 38.8789 84.2021 38.988C84.5734 39.0986 84.927 39.1532 85.2643 39.1532C85.7314 39.1532 86.0761 39.078 86.2956 38.9261C86.5166 38.7741 86.6256 38.5337 86.6256 38.2033C86.6256 37.9895 86.5711 37.8258 86.4591 37.7078C86.3501 37.5912 86.191 37.4924 85.9803 37.4143C85.7711 37.3346 85.5089 37.2491 85.1922 37.1606C84.8415 37.0573 84.5248 36.9526 84.2434 36.8464C83.9605 36.7402 83.7381 36.5824 83.5731 36.3759C83.4081 36.1694 83.3255 35.8671 83.3255 35.4674Z" fill="white" style="fill:white;fill-opacity:1;"/>
<path d="M88.6244 35.4674C88.6244 35.0824 88.7201 34.7623 88.9102 34.5072C89.0988 34.252 89.3536 34.0617 89.6777 33.9334C90.0004 33.8066 90.3716 33.7432 90.7915 33.7432C91.1481 33.7432 91.4663 33.7786 91.7447 33.8464C92.0232 33.9157 92.2338 33.9836 92.3797 34.0529L92.4195 34.8892H92.39C92.2721 34.8066 92.1204 34.7328 91.9348 34.6665C91.7491 34.6016 91.5517 34.5499 91.3381 34.5131C91.1245 34.4747 90.9285 34.4556 90.7503 34.4556C90.3584 34.4556 90.049 34.5145 89.8221 34.6311C89.5938 34.7476 89.4803 34.9792 89.4803 35.3228C89.4803 35.5293 89.5304 35.693 89.6306 35.814C89.7308 35.9349 89.8781 36.0322 90.0755 36.1075C90.27 36.1842 90.5116 36.2623 90.8018 36.3449C91.1922 36.4615 91.537 36.5735 91.8331 36.6812C92.1278 36.7874 92.3591 36.9393 92.53 37.1399C92.6979 37.3405 92.7819 37.6355 92.7819 38.0278C92.7819 38.6266 92.5859 39.0824 92.1941 39.3951C91.8007 39.7092 91.2615 39.8641 90.5735 39.8641C90.1831 39.8641 89.8162 39.8213 89.4759 39.7373C89.1356 39.6502 88.8542 39.5382 88.6362 39.401L88.5625 38.5028H88.5949C88.8277 38.7151 89.1312 38.8789 89.5024 38.988C89.8737 39.0986 90.2273 39.1532 90.5646 39.1532C91.0317 39.1532 91.3749 39.078 91.5959 38.9261C91.8154 38.7741 91.9245 38.5337 91.9245 38.2033C91.9245 37.9895 91.8699 37.8258 91.7595 37.7078C91.6504 37.5912 91.4913 37.4924 91.2806 37.4143C91.07 37.3346 90.8092 37.2491 90.4925 37.1606C90.1418 37.0573 89.8251 36.9526 89.5422 36.8464C89.2608 36.7402 89.0369 36.5824 88.8719 36.3759C88.7084 36.1694 88.6244 35.8671 88.6244 35.4674Z" fill="white" style="fill:white;fill-opacity:1;"/>
</g>
<defs>
<clipPath id="clip0_728_20724">
<rect width="92.9913" height="40" fill="white" style="fill:white;fill-opacity:1;"/>
</clipPath>
</defs>
</svg>
