<svg width="397" height="170" viewBox="0 0 397 170" fill="none" xmlns="http://www.w3.org/2000/svg">
<path d="M226.177 1.91814L203.768 106.658H176.675L199.079 1.91814H226.177ZM340.181 69.5484L354.442 30.2139L362.647 69.5484H340.181ZM370.408 106.658H395.469L373.605 1.91814H350.468C345.278 1.91814 340.877 4.9458 338.934 9.60325L298.283 106.658H326.729L332.383 91.024H367.142L370.408 106.658ZM299.693 72.4632C299.806 44.8194 261.456 43.2961 261.726 30.9473C261.801 27.18 265.386 23.1932 273.209 22.1715C277.108 21.6637 287.796 21.2688 299.938 26.8603L304.689 4.65118C298.176 2.27544 289.777 0 279.346 0C252.567 0 233.718 14.2419 233.555 34.6331C233.386 49.7025 247.013 58.1147 257.281 63.1357C267.837 68.2633 271.373 71.5543 271.341 76.149C271.266 83.1759 262.917 86.2726 255.131 86.3979C241.504 86.6173 233.593 82.7246 227.287 79.7847L222.378 102.733C228.71 105.642 240.388 108.168 252.523 108.3C280.976 108.3 299.593 94.2335 299.693 72.4632ZM187.463 1.91814L143.559 106.658H114.912L93.3113 23.0679C91.9949 17.9215 90.8603 16.0347 86.8673 13.8658C80.3607 10.3304 69.604 7.02065 60.1387 4.95834L60.7843 1.91814H106.889C112.769 1.91814 118.053 5.82338 119.382 12.5933L130.797 73.2091L158.992 1.91814H187.463Z" fill="#848E95" style="fill:#848E95;fill:color(display-p3 0.5176 0.5569 0.5843);fill-opacity:1;"/>
<path d="M217.063 138.934H210.957V152.58H217.063C219.577 152.58 221.507 152.06 222.849 151.019C224.196 149.985 224.873 148.224 224.873 145.735C224.873 143.278 224.196 141.535 222.849 140.495C221.507 139.448 219.577 138.934 217.063 138.934ZM206.664 168.815V135.467H217.677C221.244 135.467 224.084 136.314 226.19 138.012C228.296 139.711 229.349 142.269 229.349 145.691C229.349 149.139 228.296 151.715 226.19 153.389C224.084 155.075 221.244 155.915 217.677 155.915H210.957V168.815H206.664Z" fill="#848E95" style="fill:#848E95;fill:color(display-p3 0.5176 0.5569 0.5843);fill-opacity:1;"/>
<path d="M239.084 134.151H235.179V168.815H239.084V134.151Z" fill="#848E95" style="fill:#848E95;fill:color(display-p3 0.5176 0.5569 0.5843);fill-opacity:1;"/>
<path d="M260.585 160.478V155.345C260.121 155.752 259.293 156.116 258.109 156.423C256.924 156.724 255.457 157.043 253.696 157.363C252.21 157.595 251 158.034 250.079 158.679C249.157 159.319 248.694 160.466 248.694 162.102C248.694 163.594 249.126 164.697 249.991 165.412C250.856 166.133 252.047 166.49 253.564 166.49C255.031 166.49 256.285 166.183 257.338 165.568C258.391 164.954 259.199 164.189 259.757 163.262C260.309 162.346 260.585 161.412 260.585 160.478ZM246.462 149.509L246.894 145.691C247.835 145.045 249.001 144.506 250.405 144.068C251.815 143.629 253.351 143.409 255.012 143.409C258.203 143.409 260.572 144.043 262.127 145.296C263.675 146.55 264.452 148.631 264.452 151.527V168.815H260.716V164.076H260.547C259.902 165.919 258.905 167.273 257.563 168.138C256.216 168.997 254.536 169.423 252.511 169.423C251.138 169.423 249.872 169.173 248.719 168.665C247.565 168.151 246.631 167.38 245.935 166.339C245.227 165.299 244.882 163.976 244.882 162.365C244.882 160.76 245.215 159.463 245.892 158.485C246.562 157.501 247.503 156.749 248.719 156.222C249.935 155.696 251.389 155.288 253.088 154.994C255.163 154.642 256.805 154.323 258.021 154.028C259.237 153.74 260.102 153.339 260.629 152.843V151.703C260.629 149.891 260.215 148.575 259.381 147.753C258.548 146.939 256.993 146.525 254.705 146.525C253.244 146.525 251.803 146.769 250.386 147.277C248.963 147.772 247.684 148.518 246.55 149.509H246.462Z" fill="#848E95" style="fill:#848E95;fill:color(display-p3 0.5176 0.5569 0.5843);fill-opacity:1;"/>
<path d="M277.046 162.146C277.046 163.732 277.378 164.785 278.055 165.324C278.726 165.869 279.603 166.139 280.688 166.139C281.678 166.139 282.543 166.051 283.277 165.876C284.004 165.7 284.605 165.499 285.069 165.261H285.201L284.856 168.552C284.411 168.784 283.753 168.991 282.882 169.166C282.004 169.342 281.108 169.423 280.199 169.423C278.005 169.423 276.281 168.909 275.021 167.875C273.767 166.835 273.134 165.13 273.134 162.76V147.277H268.571L269.097 144.682L273.134 144.111V138.802L277.046 138.232V144.024H284.631L284.148 147.277H277.046V162.146Z" fill="#848E95" style="fill:#848E95;fill:color(display-p3 0.5176 0.5569 0.5843);fill-opacity:1;"/>
<path d="M293.632 144.024V168.815H289.72V144.024H293.632ZM289.238 137.968C289.238 137.329 289.463 136.796 289.921 136.364C290.372 135.944 290.949 135.731 291.657 135.731C292.353 135.731 292.942 135.944 293.406 136.364C293.876 136.796 294.108 137.329 294.108 137.968C294.108 138.645 293.876 139.185 293.406 139.617C292.942 140.037 292.353 140.25 291.657 140.25C290.949 140.25 290.372 140.037 289.921 139.617C289.463 139.185 289.238 138.645 289.238 137.968Z" fill="#848E95" style="fill:#848E95;fill:color(display-p3 0.5176 0.5569 0.5843);fill-opacity:1;"/>
<path d="M313.766 143.409C316.462 143.409 318.568 144.099 320.085 145.472C321.608 146.845 322.367 149.001 322.367 151.922V168.815H318.505V153.025C318.505 150.938 318.06 149.383 317.17 148.343C316.274 147.308 314.656 146.788 312.318 146.788C310.946 146.788 309.692 147.064 308.57 147.622C307.442 148.18 306.551 148.97 305.893 149.991C305.235 151.013 304.903 152.229 304.903 153.633V168.815H300.998V144.024H304.734V149.289H304.947C305.417 147.885 306.125 146.757 307.078 145.892C308.024 145.027 309.096 144.4 310.281 143.999C311.466 143.61 312.626 143.409 313.766 143.409Z" fill="#848E95" style="fill:#848E95;fill:color(display-p3 0.5176 0.5569 0.5843);fill-opacity:1;"/>
<path d="M339.479 166.051C340.827 166.051 342.062 165.775 343.19 165.217C344.312 164.666 345.215 163.87 345.886 162.848C346.557 161.826 346.895 160.623 346.895 159.25V144.024H350.8V168.815H347.071V163.594H346.895C346.394 164.998 345.679 166.133 344.745 166.998C343.805 167.863 342.758 168.477 341.586 168.859C340.413 169.235 339.26 169.423 338.119 169.423C335.43 169.423 333.311 168.728 331.757 167.324C330.208 165.919 329.431 163.751 329.431 160.829V144.024H333.336V159.952C333.336 162.058 333.775 163.6 334.653 164.578C335.53 165.562 337.141 166.051 339.479 166.051Z" fill="#848E95" style="fill:#848E95;fill:color(display-p3 0.5176 0.5569 0.5843);fill-opacity:1;"/>
<path d="M378.576 149.377H378.751C379.221 147.942 379.923 146.794 380.864 145.936C381.791 145.071 382.838 144.431 383.998 144.024C385.151 143.616 386.298 143.409 387.439 143.409C390.103 143.409 392.147 144.13 393.582 145.56C395.011 146.995 395.732 149.158 395.732 152.054V168.815H391.833V152.843C391.833 150.737 391.438 149.201 390.667 148.236C389.89 147.277 388.329 146.788 385.991 146.788C383.973 146.788 382.286 147.365 380.92 148.524C379.56 149.678 378.883 151.352 378.883 153.552V168.815H374.977V152.843C374.977 150.737 374.589 149.201 373.793 148.236C373.003 147.277 371.442 146.788 369.104 146.788C367.781 146.788 366.578 147.058 365.5 147.597C364.415 148.142 363.563 148.926 362.929 149.947C362.309 150.969 361.989 152.173 361.989 153.552V168.815H358.084V144.024H361.814V149.377H362.033C362.503 147.942 363.186 146.794 364.095 145.936C364.998 145.071 366.02 144.431 367.148 144.024C368.27 143.616 369.405 143.409 370.546 143.409C372.771 143.409 374.564 143.898 375.918 144.882C377.278 145.86 378.168 147.359 378.576 149.377Z" fill="#848E95" style="fill:#848E95;fill:color(display-p3 0.5176 0.5569 0.5843);fill-opacity:1;"/>
</svg>
