<svg width="396" height="170" viewBox="0 0 396 170" fill="none" xmlns="http://www.w3.org/2000/svg">
<g clip-path="url(#clip0_261_65291)">
<path d="M225.514 1.91814L203.104 106.658H176.012L198.415 1.91814H225.514ZM339.518 69.5484L353.778 30.2139L361.984 69.5484H339.518ZM369.744 106.658H394.805L372.941 1.91814H349.804C344.614 1.91814 340.214 4.9458 338.27 9.60325L297.619 106.658H326.066L331.72 91.024H366.478L369.744 106.658ZM299.03 72.4632C299.143 44.8194 260.792 43.2961 261.062 30.9473C261.137 27.18 264.723 23.1932 272.546 22.1715C276.445 21.6637 287.132 21.2688 299.274 26.8603L304.026 4.65118C297.513 2.27544 289.113 0 278.683 0C251.904 0 233.055 14.2419 232.892 34.6331C232.722 49.7025 246.35 58.1147 256.618 63.1357C267.174 68.2633 270.709 71.5543 270.678 76.149C270.603 83.1759 262.253 86.2726 254.468 86.3979C240.84 86.6173 232.929 82.7246 226.623 79.7847L221.715 102.733C228.046 105.642 239.724 108.168 251.86 108.3C280.312 108.3 298.93 94.2335 299.03 72.4632ZM186.8 1.91814L142.896 106.658H114.249L92.6477 23.0679C91.3313 17.9215 90.1967 16.0347 86.2037 13.8658C79.6971 10.3304 68.9404 7.02065 59.4751 4.95834L60.1207 1.91814H106.225C112.105 1.91814 117.389 5.82338 118.718 12.5933L130.133 73.2091L158.328 1.91814H186.8Z" fill="white" style="fill:white;fill-opacity:1;"/>
<path d="M216.399 138.934H210.294V152.58H216.399C218.913 152.58 220.844 152.06 222.185 151.019C223.533 149.985 224.21 148.224 224.21 145.735C224.21 143.278 223.533 141.535 222.185 140.495C220.844 139.448 218.913 138.934 216.399 138.934ZM206 168.815V135.467H217.014C220.58 135.467 223.42 136.314 225.526 138.012C227.632 139.711 228.685 142.269 228.685 145.691C228.685 149.139 227.632 151.715 225.526 153.389C223.42 155.075 220.58 155.915 217.014 155.915H210.294V168.815H206Z" fill="white" style="fill:white;fill-opacity:1;"/>
<path d="M238.42 134.151H234.515V168.815H238.42V134.151Z" fill="white" style="fill:white;fill-opacity:1;"/>
<path d="M259.921 160.478V155.345C259.457 155.752 258.63 156.116 257.445 156.423C256.26 156.724 254.794 157.043 253.032 157.363C251.547 157.595 250.337 158.034 249.415 158.679C248.494 159.319 248.03 160.466 248.03 162.102C248.03 163.594 248.462 164.697 249.328 165.412C250.193 166.133 251.384 166.49 252.901 166.49C254.367 166.49 255.621 166.183 256.674 165.568C257.727 164.954 258.536 164.189 259.094 163.262C259.645 162.346 259.921 161.412 259.921 160.478ZM245.798 149.509L246.231 145.691C247.171 145.045 248.337 144.506 249.741 144.068C251.152 143.629 252.687 143.409 254.349 143.409C257.539 143.409 259.909 144.043 261.463 145.296C263.012 146.55 263.789 148.631 263.789 151.527V168.815H260.053V164.076H259.884C259.238 165.919 258.241 167.273 256.9 168.138C255.552 168.997 253.872 169.423 251.847 169.423C250.475 169.423 249.208 169.173 248.055 168.665C246.902 168.151 245.968 167.38 245.272 166.339C244.564 165.299 244.219 163.976 244.219 162.365C244.219 160.76 244.551 159.463 245.228 158.485C245.899 157.501 246.839 156.749 248.055 156.222C249.271 155.696 250.725 155.288 252.424 154.994C254.499 154.642 256.141 154.323 257.357 154.028C258.573 153.74 259.439 153.339 259.965 152.843V151.703C259.965 149.891 259.551 148.575 258.718 147.753C257.884 146.939 256.329 146.525 254.041 146.525C252.581 146.525 251.139 146.769 249.722 147.277C248.3 147.772 247.021 148.518 245.886 149.509H245.798Z" fill="white" style="fill:white;fill-opacity:1;"/>
<path d="M276.382 162.146C276.382 163.732 276.714 164.785 277.391 165.324C278.062 165.869 278.94 166.139 280.024 166.139C281.015 166.139 281.88 166.051 282.613 165.876C283.34 165.7 283.942 165.499 284.406 165.261H284.537L284.193 168.552C283.748 168.784 283.089 168.991 282.218 169.166C281.34 169.342 280.444 169.423 279.535 169.423C277.341 169.423 275.617 168.909 274.357 167.875C273.104 166.835 272.471 165.13 272.471 162.76V147.277H267.907L268.434 144.682L272.471 144.111V138.802L276.382 138.232V144.024H283.967L283.484 147.277H276.382V162.146Z" fill="white" style="fill:white;fill-opacity:1;"/>
<path d="M292.968 144.024V168.815H289.057V144.024H292.968ZM288.574 137.968C288.574 137.329 288.8 136.796 289.257 136.364C289.709 135.944 290.286 135.731 290.994 135.731C291.69 135.731 292.279 135.944 292.743 136.364C293.213 136.796 293.445 137.329 293.445 137.968C293.445 138.645 293.213 139.185 292.743 139.617C292.279 140.037 291.69 140.25 290.994 140.25C290.286 140.25 289.709 140.037 289.257 139.617C288.8 139.185 288.574 138.645 288.574 137.968Z" fill="white" style="fill:white;fill-opacity:1;"/>
<path d="M313.103 143.409C315.798 143.409 317.904 144.099 319.421 145.472C320.945 146.845 321.703 149.001 321.703 151.922V168.815H317.842V153.025C317.842 150.938 317.397 149.383 316.507 148.343C315.61 147.308 313.993 146.788 311.655 146.788C310.282 146.788 309.028 147.064 307.906 147.622C306.778 148.18 305.888 148.97 305.23 149.991C304.571 151.013 304.239 152.229 304.239 153.633V168.815H300.334V144.024H304.07V149.289H304.283C304.753 147.885 305.462 146.757 306.414 145.892C307.361 145.027 308.433 144.4 309.618 143.999C310.802 143.61 311.962 143.409 313.103 143.409Z" fill="white" style="fill:white;fill-opacity:1;"/>
<path d="M338.816 166.051C340.164 166.051 341.398 165.775 342.527 165.217C343.649 164.666 344.552 163.87 345.222 162.848C345.893 161.826 346.231 160.623 346.231 159.25V144.024H350.137V168.815H346.407V163.594H346.231C345.73 164.998 345.015 166.133 344.081 166.998C343.141 167.863 342.094 168.477 340.922 168.859C339.75 169.235 338.597 169.423 337.456 169.423C334.766 169.423 332.648 168.728 331.093 167.324C329.545 165.919 328.768 163.751 328.768 160.829V144.024H332.673V159.952C332.673 162.058 333.112 163.6 333.989 164.578C334.867 165.562 336.478 166.051 338.816 166.051Z" fill="white" style="fill:white;fill-opacity:1;"/>
<path d="M377.912 149.377H378.087C378.558 147.942 379.26 146.794 380.2 145.936C381.128 145.071 382.174 144.431 383.334 144.024C384.488 143.616 385.635 143.409 386.776 143.409C389.44 143.409 391.483 144.13 392.919 145.56C394.348 146.995 395.069 149.158 395.069 152.054V168.815H391.17V152.843C391.17 150.737 390.775 149.201 390.004 148.236C389.226 147.277 387.666 146.788 385.328 146.788C383.309 146.788 381.623 147.365 380.256 148.524C378.896 149.678 378.219 151.352 378.219 153.552V168.815H374.314V152.843C374.314 150.737 373.925 149.201 373.129 148.236C372.339 147.277 370.778 146.788 368.44 146.788C367.118 146.788 365.914 147.058 364.836 147.597C363.752 148.142 362.899 148.926 362.266 149.947C361.645 150.969 361.326 152.173 361.326 153.552V168.815H357.42V144.024H361.15V149.377H361.37C361.84 147.942 362.523 146.794 363.432 145.936C364.334 145.071 365.356 144.431 366.485 144.024C367.607 143.616 368.741 143.409 369.882 143.409C372.107 143.409 373.9 143.898 375.254 144.882C376.614 145.86 377.504 147.359 377.912 149.377Z" fill="white" style="fill:white;fill-opacity:1;"/>
</g>
<defs>
<clipPath id="clip0_261_65291">
<rect width="395.664" height="170" fill="white" style="fill:white;fill-opacity:1;"/>
</clipPath>
</defs>
</svg>
