<svg width="397" height="170" viewBox="0 0 397 170" fill="none" xmlns="http://www.w3.org/2000/svg">
<g clip-path="url(#clip0_261_65191)">
<path d="M226.177 1.91815L203.768 106.658H176.675L199.079 1.91815H226.177ZM340.181 69.5484L354.442 30.2139L362.647 69.5484H340.181ZM370.408 106.658H395.469L373.605 1.91815H350.468C345.278 1.91815 340.877 4.9458 338.934 9.60326L298.283 106.658H326.729L332.383 91.024H367.142L370.408 106.658ZM299.693 72.4632C299.806 44.8194 261.456 43.2961 261.726 30.9473C261.801 27.18 265.386 23.1932 273.209 22.1715C277.108 21.6637 287.796 21.2688 299.938 26.8603L304.689 4.65119C298.176 2.27545 289.777 3.8147e-06 279.346 3.8147e-06C252.567 3.8147e-06 233.718 14.2419 233.555 34.6331C233.386 49.7025 247.013 58.1147 257.281 63.1357C267.837 68.2633 271.373 71.5543 271.341 76.149C271.266 83.176 262.917 86.2726 255.131 86.3979C241.504 86.6173 233.593 82.7246 227.287 79.7847L222.378 102.733C228.71 105.642 240.388 108.168 252.523 108.3C280.976 108.3 299.593 94.2335 299.693 72.4632ZM187.463 1.91815L143.559 106.658H114.912L93.3113 23.0679C91.9949 17.9215 90.8603 16.0347 86.8673 13.8658C80.3607 10.3304 69.604 7.02066 60.1387 4.95834L60.7843 1.91815H106.889C112.769 1.91815 118.053 5.82338 119.382 12.5933L130.797 73.2091L158.992 1.91815H187.463Z" fill="#848E95" style="fill:#848E95;fill:color(display-p3 0.5176 0.5569 0.5843);fill-opacity:1;"/>
<path d="M11.0629 138.934H4.95746V152.58H11.0629C13.5766 152.58 15.5072 152.06 16.8487 151.019C18.1964 149.985 18.8734 148.224 18.8734 145.735C18.8734 143.278 18.1964 141.535 16.8487 140.495C15.5072 139.448 13.5766 138.934 11.0629 138.934ZM0.663574 168.815V135.467H11.6772C15.244 135.467 18.0836 136.314 20.1898 138.012C22.296 139.711 23.3491 142.269 23.3491 145.691C23.3491 149.139 22.296 151.715 20.1898 153.389C18.0836 155.075 15.244 155.915 11.6772 155.915H4.95746V168.815H0.663574Z" fill="#848E95" style="fill:#848E95;fill:color(display-p3 0.5176 0.5569 0.5843);fill-opacity:1;"/>
<path d="M33.084 134.151H29.1787V168.815H33.084V134.151Z" fill="#848E95" style="fill:#848E95;fill:color(display-p3 0.5176 0.5569 0.5843);fill-opacity:1;"/>
<path d="M54.5848 160.478V155.345C54.1209 155.752 53.2935 156.116 52.1087 156.423C50.924 156.724 49.4572 157.043 47.6958 157.363C46.2101 157.595 45.0003 158.034 44.0789 158.679C43.1574 159.319 42.6935 160.466 42.6935 162.102C42.6935 163.594 43.1261 164.697 43.9911 165.412C44.8562 166.133 46.0472 166.49 47.5641 166.49C49.0309 166.49 50.2846 166.183 51.3377 165.568C52.3908 164.954 53.1994 164.189 53.7573 163.262C54.309 162.346 54.5848 161.412 54.5848 160.478ZM40.462 149.509L40.8945 145.691C41.8348 145.045 43.0007 144.506 44.4048 144.068C45.8152 143.629 47.351 143.409 49.0121 143.409C52.2028 143.409 54.5722 144.043 56.1268 145.296C57.6751 146.55 58.4524 148.631 58.4524 151.527V168.815H54.7164V164.076H54.5472C53.9015 165.919 52.9048 167.273 51.5634 168.138C50.2157 168.997 48.5357 169.423 46.511 169.423C45.1382 169.423 43.872 169.173 42.7186 168.665C41.5652 168.151 40.6312 167.38 39.9354 166.339C39.2271 165.299 38.8823 163.976 38.8823 162.365C38.8823 160.76 39.2146 159.463 39.8915 158.485C40.5623 157.501 41.5025 156.749 42.7186 156.222C43.9347 155.696 45.389 155.288 47.0877 154.993C49.1626 154.642 50.8049 154.323 52.021 154.028C53.2371 153.74 54.1021 153.339 54.6287 152.843V151.703C54.6287 149.891 54.2149 148.575 53.3812 147.753C52.5475 146.939 50.993 146.525 48.705 146.525C47.2444 146.525 45.8027 146.769 44.386 147.277C42.9631 147.772 41.6843 148.518 40.5497 149.509H40.462Z" fill="#848E95" style="fill:#848E95;fill:color(display-p3 0.5176 0.5569 0.5843);fill-opacity:1;"/>
<path d="M71.0457 162.146C71.0457 163.732 71.378 164.785 72.055 165.324C72.7257 165.869 73.6033 166.139 74.6877 166.139C75.6781 166.139 76.5432 166.051 77.2766 165.875C78.0037 165.7 78.6055 165.499 79.0693 165.261H79.201L78.8562 168.552C78.4112 168.784 77.753 168.991 76.8817 169.166C76.0041 169.342 75.1077 169.423 74.1988 169.423C72.0048 169.423 70.281 168.909 69.021 167.875C67.7673 166.835 67.1342 165.13 67.1342 162.76V147.277H62.5708L63.0973 144.682L67.1342 144.111V138.802L71.0457 138.232V144.024H78.6305L78.1479 147.277H71.0457V162.146Z" fill="#848E95" style="fill:#848E95;fill:color(display-p3 0.5176 0.5569 0.5843);fill-opacity:1;"/>
<path d="M87.632 144.024V168.815H83.7205V144.024H87.632ZM83.2378 137.968C83.2378 137.329 83.4635 136.796 83.921 136.364C84.3724 135.944 84.9491 135.731 85.6574 135.731C86.3532 135.731 86.9424 135.944 87.4063 136.364C87.8764 136.796 88.1084 137.329 88.1084 137.968C88.1084 138.645 87.8764 139.184 87.4063 139.617C86.9424 140.037 86.3532 140.25 85.6574 140.25C84.9491 140.25 84.3724 140.037 83.921 139.617C83.4635 139.184 83.2378 138.645 83.2378 137.968Z" fill="#848E95" style="fill:#848E95;fill:color(display-p3 0.5176 0.5569 0.5843);fill-opacity:1;"/>
<path d="M107.766 143.409C110.462 143.409 112.568 144.099 114.085 145.472C115.608 146.845 116.367 149.001 116.367 151.922V168.815H112.505V153.025C112.505 150.938 112.06 149.383 111.17 148.343C110.274 147.308 108.656 146.788 106.318 146.788C104.946 146.788 103.692 147.064 102.57 147.622C101.442 148.18 100.551 148.97 99.8932 149.991C99.235 151.013 98.9028 152.229 98.9028 153.633V168.815H94.9976V144.024H98.7336V149.289H98.9467C99.4168 147.885 100.125 146.757 101.078 145.892C102.024 145.027 103.096 144.4 104.281 143.999C105.466 143.61 106.626 143.409 107.766 143.409Z" fill="#848E95" style="fill:#848E95;fill:color(display-p3 0.5176 0.5569 0.5843);fill-opacity:1;"/>
<path d="M133.479 166.051C134.827 166.051 136.062 165.775 137.19 165.217C138.312 164.666 139.215 163.87 139.886 162.848C140.557 161.826 140.895 160.623 140.895 159.25V144.024H144.8V168.815H141.071V163.594H140.895C140.394 164.998 139.679 166.133 138.745 166.998C137.805 167.863 136.758 168.477 135.586 168.859C134.413 169.235 133.26 169.423 132.119 169.423C129.43 169.423 127.311 168.728 125.757 167.324C124.208 165.919 123.431 163.751 123.431 160.829V144.024H127.336V159.952C127.336 162.058 127.775 163.6 128.653 164.578C129.53 165.562 131.141 166.051 133.479 166.051Z" fill="#848E95" style="fill:#848E95;fill:color(display-p3 0.5176 0.5569 0.5843);fill-opacity:1;"/>
<path d="M172.576 149.377H172.751C173.221 147.941 173.923 146.794 174.864 145.936C175.791 145.071 176.838 144.431 177.998 144.024C179.151 143.616 180.298 143.409 181.439 143.409C184.103 143.409 186.147 144.13 187.582 145.559C189.011 146.995 189.732 149.158 189.732 152.054V168.815H185.833V152.843C185.833 150.737 185.438 149.201 184.667 148.236C183.89 147.277 182.329 146.788 179.991 146.788C177.973 146.788 176.286 147.365 174.92 148.524C173.56 149.678 172.883 151.352 172.883 153.552V168.815H168.977V152.843C168.977 150.737 168.589 149.201 167.793 148.236C167.003 147.277 165.442 146.788 163.104 146.788C161.781 146.788 160.578 147.058 159.5 147.597C158.415 148.142 157.563 148.926 156.929 149.947C156.309 150.969 155.989 152.173 155.989 153.552V168.815H152.084V144.024H155.814V149.377H156.033C156.503 147.941 157.186 146.794 158.095 145.936C158.998 145.071 160.02 144.431 161.148 144.024C162.27 143.616 163.405 143.409 164.546 143.409C166.771 143.409 168.564 143.898 169.918 144.882C171.278 145.86 172.168 147.359 172.576 149.377Z" fill="#848E95" style="fill:#848E95;fill:color(display-p3 0.5176 0.5569 0.5843);fill-opacity:1;"/>
<path d="M219.614 165.524C222.134 165.524 223.939 165.01 225.03 163.97C226.127 162.929 226.679 161.356 226.679 159.25C226.679 157.118 226.102 155.526 224.967 154.492C223.827 153.451 222.04 152.931 219.614 152.931H210.882V165.524H219.614ZM219 138.758H210.882V149.772H219C223.125 149.772 225.187 147.916 225.187 144.199C225.187 142.325 224.66 140.952 223.607 140.075C222.554 139.197 221.018 138.758 219 138.758ZM206.626 168.815V135.467H220.053C222.974 135.467 225.306 136.22 227.055 137.724C228.791 139.235 229.663 141.215 229.663 143.673C229.663 145.603 229.029 147.214 227.776 148.499C226.516 149.791 224.967 150.581 223.125 150.869V151.001C225.525 151.264 227.456 152.129 228.935 153.589C230.415 155.056 231.148 157.012 231.148 159.469C231.148 161.224 230.778 162.81 230.057 164.233C229.324 165.65 228.214 166.772 226.723 167.587C225.231 168.408 223.3 168.815 220.931 168.815H206.626Z" fill="#848E95" style="fill:#848E95;fill:color(display-p3 0.5176 0.5569 0.5843);fill-opacity:1;"/>
<path d="M247.828 166.051C249.176 166.051 250.411 165.775 251.533 165.217C252.661 164.666 253.564 163.87 254.234 162.848C254.911 161.826 255.244 160.623 255.244 159.25V144.024H259.149V168.815H255.419V163.594H255.244C254.742 164.998 254.028 166.133 253.094 166.998C252.153 167.863 251.1 168.477 249.934 168.859C248.762 169.235 247.609 169.423 246.468 169.423C243.772 169.423 241.654 168.728 240.105 167.324C238.551 165.919 237.78 163.751 237.78 160.829V144.024H241.685V159.952C241.685 162.058 242.118 163.6 243.001 164.578C243.873 165.562 245.484 166.051 247.828 166.051Z" fill="#848E95" style="fill:#848E95;fill:color(display-p3 0.5176 0.5569 0.5843);fill-opacity:1;"/>
<path d="M265.725 150.737C265.725 149.101 266.132 147.741 266.935 146.656C267.737 145.572 268.828 144.763 270.207 144.218C271.579 143.679 273.159 143.409 274.946 143.409C276.463 143.409 277.817 143.56 279.001 143.848C280.186 144.143 281.082 144.431 281.703 144.726L281.872 148.28H281.747C281.245 147.929 280.6 147.616 279.81 147.333C279.02 147.058 278.174 146.838 277.271 146.682C276.356 146.519 275.529 146.437 274.77 146.437C273.103 146.437 271.786 146.688 270.821 147.183C269.849 147.678 269.367 148.662 269.367 150.123C269.367 151 269.58 151.696 270.006 152.21C270.432 152.724 271.059 153.138 271.899 153.458C272.727 153.784 273.755 154.116 274.989 154.467C276.651 154.962 278.117 155.439 279.377 155.896C280.631 156.347 281.615 156.993 282.342 157.846C283.057 158.698 283.408 159.952 283.408 161.619C283.408 164.164 282.581 166.101 280.913 167.43C279.239 168.765 276.945 169.423 274.018 169.423C272.357 169.423 270.796 169.242 269.348 168.884C267.9 168.515 266.703 168.038 265.775 167.455L265.461 163.638H265.599C266.59 164.54 267.881 165.236 269.461 165.7C271.04 166.17 272.545 166.402 273.98 166.402C275.967 166.402 277.428 166.082 278.368 165.437C279.302 164.791 279.766 163.769 279.766 162.365C279.766 161.456 279.534 160.76 279.064 160.259C278.6 159.764 277.917 159.344 277.027 159.012C276.13 158.673 275.021 158.309 273.673 157.933C272.175 157.495 270.833 157.05 269.63 156.598C268.433 156.147 267.48 155.476 266.778 154.599C266.082 153.721 265.725 152.436 265.725 150.737Z" fill="#848E95" style="fill:#848E95;fill:color(display-p3 0.5176 0.5569 0.5843);fill-opacity:1;"/>
<path d="M292.98 144.024V168.815H289.075V144.024H292.98ZM288.598 137.968C288.598 137.329 288.824 136.796 289.275 136.364C289.726 135.944 290.303 135.731 291.005 135.731C291.714 135.731 292.29 135.944 292.767 136.364C293.231 136.796 293.462 137.329 293.462 137.968C293.462 138.645 293.231 139.184 292.767 139.617C292.29 140.037 291.714 140.25 291.005 140.25C290.303 140.25 289.726 140.037 289.275 139.617C288.824 139.184 288.598 138.645 288.598 137.968Z" fill="#848E95" style="fill:#848E95;fill:color(display-p3 0.5176 0.5569 0.5843);fill-opacity:1;"/>
<path d="M313.12 143.409C315.81 143.409 317.916 144.099 319.433 145.472C320.962 146.845 321.721 149.001 321.721 151.922V168.815H317.859V153.025C317.859 150.938 317.408 149.383 316.524 148.343C315.628 147.308 314.01 146.788 311.666 146.788C310.293 146.788 309.04 147.064 307.924 147.622C306.796 148.18 305.899 148.97 305.241 149.991C304.583 151.013 304.257 152.229 304.257 153.633V168.815H300.352V144.024H304.075V149.289H304.294C304.771 147.885 305.479 146.757 306.426 145.892C307.378 145.027 308.45 144.4 309.629 143.999C310.814 143.61 311.98 143.409 313.12 143.409Z" fill="#848E95" style="fill:#848E95;fill:color(display-p3 0.5176 0.5569 0.5843);fill-opacity:1;"/>
<path d="M339.229 146.393C337.028 146.393 335.261 147.064 333.913 148.412C332.571 149.759 331.75 151.634 331.456 154.028H346.418V153.589C346.418 152.129 346.199 150.863 345.766 149.797C345.321 148.725 344.582 147.891 343.547 147.29C342.507 146.694 341.071 146.393 339.229 146.393ZM340.188 166.27C342.419 166.27 344.224 166.001 345.61 165.462C347.001 164.916 348.249 164.196 349.365 163.287H349.452L349.101 166.841C348.368 167.455 347.227 168.038 345.672 168.596C344.124 169.154 342.193 169.423 339.88 169.423C337.367 169.423 335.167 168.878 333.273 167.762C331.393 166.647 329.92 165.117 328.867 163.155C327.814 161.193 327.287 158.961 327.287 156.442C327.287 153.928 327.807 151.69 328.848 149.728C329.882 147.772 331.305 146.23 333.104 145.102C334.903 143.974 336.934 143.409 339.185 143.409C341.786 143.409 343.898 143.873 345.522 144.795C347.146 145.716 348.33 147.001 349.076 148.65C349.822 150.305 350.198 152.229 350.198 154.423C350.198 154.718 350.179 155.069 350.154 155.476C350.123 155.89 350.079 156.253 350.016 156.573H331.28C331.28 156.604 331.286 156.636 331.305 156.661C331.318 156.686 331.311 156.717 331.28 156.749C331.343 159.707 332.164 162.027 333.744 163.732C335.323 165.424 337.467 166.27 340.188 166.27Z" fill="#848E95" style="fill:#848E95;fill:color(display-p3 0.5176 0.5569 0.5843);fill-opacity:1;"/>
<path d="M355.2 150.737C355.2 149.101 355.601 147.741 356.41 146.656C357.212 145.572 358.303 144.763 359.676 144.218C361.049 143.679 362.628 143.409 364.415 143.409C365.932 143.409 367.286 143.56 368.477 143.848C369.655 144.143 370.558 144.431 371.172 144.726L371.348 148.28H371.216C370.715 147.929 370.075 147.616 369.285 147.333C368.496 147.058 367.649 146.838 366.741 146.682C365.832 146.519 364.998 146.437 364.239 146.437C362.572 146.437 361.256 146.688 360.29 147.183C359.325 147.678 358.842 148.662 358.842 150.123C358.842 151 359.055 151.696 359.475 152.21C359.908 152.724 360.528 153.138 361.368 153.458C362.202 153.784 363.23 154.116 364.459 154.467C366.126 154.962 367.587 155.439 368.847 155.896C370.1 156.347 371.091 156.993 371.812 157.846C372.526 158.698 372.884 159.952 372.884 161.619C372.884 164.164 372.05 166.101 370.382 167.43C368.715 168.765 366.421 169.423 363.493 169.423C361.826 169.423 360.265 169.242 358.823 168.884C357.369 168.515 356.178 168.038 355.244 167.455L354.937 163.638H355.069C356.059 164.54 357.35 165.236 358.93 165.7C360.51 166.17 362.014 166.402 363.45 166.402C365.437 166.402 366.903 166.082 367.837 165.437C368.778 164.791 369.242 163.769 369.242 162.365C369.242 161.456 369.01 160.76 368.533 160.259C368.069 159.764 367.392 159.344 366.496 159.012C365.606 158.673 364.49 158.309 363.142 157.933C361.651 157.495 360.303 157.05 359.106 156.598C357.902 156.147 356.955 155.476 356.253 154.599C355.551 153.721 355.2 152.436 355.2 150.737Z" fill="#848E95" style="fill:#848E95;fill:color(display-p3 0.5176 0.5569 0.5843);fill-opacity:1;"/>
<path d="M377.748 150.737C377.748 149.101 378.156 147.741 378.964 146.656C379.767 145.572 380.851 144.763 382.23 144.218C383.603 143.679 385.183 143.409 386.969 143.409C388.486 143.409 389.84 143.56 391.025 143.848C392.209 144.143 393.106 144.431 393.726 144.726L393.896 148.28H393.77C393.269 147.929 392.623 147.616 391.833 147.333C391.044 147.058 390.204 146.838 389.295 146.682C388.386 146.519 387.552 146.437 386.794 146.437C385.126 146.437 383.81 146.688 382.844 147.183C381.873 147.678 381.39 148.662 381.39 150.123C381.39 151 381.603 151.696 382.029 152.21C382.456 152.724 383.083 153.138 383.923 153.458C384.75 153.784 385.778 154.116 387.013 154.467C388.674 154.962 390.141 155.439 391.401 155.896C392.655 156.347 393.639 156.993 394.366 157.846C395.08 158.698 395.438 159.952 395.438 161.619C395.438 164.164 394.604 166.101 392.937 167.43C391.263 168.765 388.969 169.423 386.041 169.423C384.38 169.423 382.819 169.242 381.371 168.884C379.923 168.515 378.726 168.038 377.798 167.455L377.485 163.638H377.623C378.613 164.54 379.904 165.236 381.484 165.7C383.064 166.17 384.568 166.402 386.004 166.402C387.991 166.402 389.451 166.082 390.392 165.437C391.326 164.791 391.789 163.769 391.789 162.365C391.789 161.456 391.558 160.76 391.087 160.259C390.624 159.764 389.947 159.344 389.05 159.012C388.154 158.673 387.044 158.309 385.697 157.933C384.205 157.495 382.857 157.05 381.653 156.598C380.456 156.147 379.503 155.476 378.801 154.599C378.105 153.721 377.748 152.436 377.748 150.737Z" fill="#848E95" style="fill:#848E95;fill:color(display-p3 0.5176 0.5569 0.5843);fill-opacity:1;"/>
</g>
<defs>
<clipPath id="clip0_261_65191">
<rect width="395.664" height="170" fill="white" style="fill:white;fill-opacity:1;" transform="translate(0.663574)"/>
</clipPath>
</defs>
</svg>
