<svg width="47" height="48" viewBox="0 0 47 48" fill="none" xmlns="http://www.w3.org/2000/svg">
<path d="M44.6732 16.4756L43.9388 14.7024L43.0526 13L42.0213 11.3813L40.853 9.85867L39.5564 8.44365L38.1413 7.14702L36.6187 5.97865L35 4.94744L33.2976 4.06123L31.5244 3.32676L29.694 2.74963L27.8203 2.33423L25.9174 2.08372L24 2L22.0826 2.08372L20.1797 2.33423L18.306 2.74963L16.4756 3.32676L14.7024 4.06123L13 4.94744L11.3813 5.97865L9.85867 7.14702L8.44365 8.44365L7.14702 9.85867L5.97865 11.3813L4.94744 13L4.06123 14.7024L3.32676 16.4756L2.74963 18.306L2.33423 20.1797L2.08372 22.0826L2 24L2.08372 25.9174L2.33423 27.8203L2.74963 29.694L3.32676 31.5244L4.06123 33.2976L4.94744 35L5.97865 36.6187L7.14702 38.1413L8.44365 39.5564L9.85867 40.853L11.3813 42.0213L13 43.0526L14.7024 43.9388L16.4756 44.6732L18.306 45.2504L20.1797 45.6658L22.0826 45.9163L24 46L25.9174 45.9163L27.8203 45.6658L29.694 45.2504L31.5244 44.6732L33.2976 43.9388L35 43.0526L36.6187 42.0213L38.1413 40.853" stroke="#50DBD0" style="stroke:#50DBD0;stroke:color(display-p3 0.3137 0.8588 0.8157);stroke-opacity:1;" stroke-width="4" stroke-linecap="round"/>
</svg>
