<svg width="396" height="170" viewBox="0 0 396 170" fill="none" xmlns="http://www.w3.org/2000/svg">
<g clip-path="url(#clip0_261_65331)">
<path d="M225.841 1.91814L203.432 106.658H176.339L198.743 1.91814H225.841ZM339.845 69.5484L354.106 30.2139L362.311 69.5484H339.845ZM370.072 106.658H395.133L373.269 1.91814H350.132C344.942 1.91814 340.541 4.9458 338.598 9.60325L297.947 106.658H326.393L332.047 91.024H366.806L370.072 106.658ZM299.358 72.4632C299.47 44.8194 261.12 43.2961 261.39 30.9473C261.465 27.18 265.05 23.1932 272.873 22.1715C276.772 21.6637 287.46 21.2688 299.602 26.8603L304.353 4.65118C297.841 2.27544 289.441 0 279.01 0C252.231 0 233.382 14.2419 233.219 34.6331C233.05 49.7025 246.678 58.1147 256.945 63.1357C267.501 68.2633 271.037 71.5543 271.005 76.149C270.93 83.1759 262.581 86.2726 254.795 86.3979C241.168 86.6173 233.257 82.7246 226.951 79.7847L222.043 102.733C228.374 105.642 240.052 108.168 252.188 108.3C280.64 108.3 299.257 94.2335 299.358 72.4632ZM187.127 1.91814L143.223 106.658H114.576L92.9753 23.0679C91.659 17.9215 90.5244 16.0347 86.5314 13.8658C80.0247 10.3304 69.2681 7.02065 59.8027 4.95834L60.4484 1.91814H106.553C112.433 1.91814 117.717 5.82338 119.046 12.5933L130.461 73.2091L158.656 1.91814H187.127Z" fill="#0056A7" style="fill:#0056A7;fill:color(display-p3 0.0000 0.3373 0.6549);fill-opacity:1;"/>
<path d="M216.727 138.934H210.622V152.58H216.727C219.241 152.58 221.171 152.06 222.513 151.019C223.86 149.985 224.537 148.224 224.537 145.735C224.537 143.278 223.86 141.535 222.513 140.495C221.171 139.448 219.241 138.934 216.727 138.934ZM206.328 168.815V135.467H217.341C220.908 135.467 223.748 136.314 225.854 138.012C227.96 139.711 229.013 142.269 229.013 145.691C229.013 149.139 227.96 151.715 225.854 153.389C223.748 155.075 220.908 155.915 217.341 155.915H210.622V168.815H206.328Z" fill="#0056A7" style="fill:#0056A7;fill:color(display-p3 0.0000 0.3373 0.6549);fill-opacity:1;"/>
<path d="M238.748 134.151H234.843V168.815H238.748V134.151Z" fill="#0056A7" style="fill:#0056A7;fill:color(display-p3 0.0000 0.3373 0.6549);fill-opacity:1;"/>
<path d="M260.249 160.478V155.345C259.785 155.752 258.958 156.116 257.773 156.423C256.588 156.724 255.121 157.043 253.36 157.363C251.874 157.595 250.664 158.034 249.743 158.679C248.821 159.319 248.358 160.466 248.358 162.102C248.358 163.594 248.79 164.697 249.655 165.412C250.52 166.133 251.711 166.49 253.228 166.49C254.695 166.49 255.949 166.183 257.002 165.568C258.055 164.954 258.864 164.189 259.421 163.262C259.973 162.346 260.249 161.412 260.249 160.478ZM246.126 149.509L246.559 145.691C247.499 145.045 248.665 144.506 250.069 144.068C251.479 143.629 253.015 143.409 254.676 143.409C257.867 143.409 260.236 144.043 261.791 145.296C263.339 146.55 264.116 148.631 264.116 151.527V168.815H260.38V164.076H260.211C259.566 165.919 258.569 167.273 257.227 168.138C255.88 168.997 254.2 169.423 252.175 169.423C250.802 169.423 249.536 169.173 248.383 168.665C247.229 168.151 246.295 167.38 245.599 166.339C244.891 165.299 244.546 163.976 244.546 162.365C244.546 160.76 244.879 159.463 245.556 158.485C246.226 157.501 247.167 156.749 248.383 156.222C249.599 155.696 251.053 155.288 252.752 154.994C254.827 154.642 256.469 154.323 257.685 154.028C258.901 153.74 259.766 153.339 260.293 152.843V151.703C260.293 149.891 259.879 148.575 259.045 147.753C258.212 146.939 256.657 146.525 254.369 146.525C252.908 146.525 251.467 146.769 250.05 147.277C248.627 147.772 247.348 148.518 246.214 149.509H246.126Z" fill="#0056A7" style="fill:#0056A7;fill:color(display-p3 0.0000 0.3373 0.6549);fill-opacity:1;"/>
<path d="M276.71 162.146C276.71 163.732 277.042 164.785 277.719 165.324C278.39 165.869 279.267 166.139 280.352 166.139C281.342 166.139 282.207 166.051 282.941 165.876C283.668 165.7 284.27 165.499 284.733 165.261H284.865L284.52 168.552C284.075 168.784 283.417 168.991 282.546 169.166C281.668 169.342 280.772 169.423 279.863 169.423C277.669 169.423 275.945 168.909 274.685 167.875C273.431 166.835 272.798 165.13 272.798 162.76V147.277H268.235L268.761 144.682L272.798 144.111V138.802L276.71 138.232V144.024H284.295L283.812 147.277H276.71V162.146Z" fill="#0056A7" style="fill:#0056A7;fill:color(display-p3 0.0000 0.3373 0.6549);fill-opacity:1;"/>
<path d="M293.296 144.024V168.815H289.385V144.024H293.296ZM288.902 137.968C288.902 137.329 289.128 136.796 289.585 136.364C290.036 135.944 290.613 135.731 291.321 135.731C292.017 135.731 292.607 135.944 293.07 136.364C293.541 136.796 293.772 137.329 293.772 137.968C293.772 138.645 293.541 139.185 293.07 139.617C292.607 140.037 292.017 140.25 291.321 140.25C290.613 140.25 290.036 140.037 289.585 139.617C289.128 139.185 288.902 138.645 288.902 137.968Z" fill="#0056A7" style="fill:#0056A7;fill:color(display-p3 0.0000 0.3373 0.6549);fill-opacity:1;"/>
<path d="M313.43 143.409C316.126 143.409 318.232 144.099 319.749 145.472C321.272 146.845 322.031 149.001 322.031 151.922V168.815H318.169V153.025C318.169 150.938 317.724 149.383 316.834 148.343C315.938 147.308 314.321 146.788 311.982 146.788C310.61 146.788 309.356 147.064 308.234 147.622C307.106 148.18 306.215 148.97 305.557 149.991C304.899 151.013 304.567 152.229 304.567 153.633V168.815H300.662V144.024H304.398V149.289H304.611C305.081 147.885 305.789 146.757 306.742 145.892C307.689 145.027 308.76 144.4 309.945 143.999C311.13 143.61 312.29 143.409 313.43 143.409Z" fill="#0056A7" style="fill:#0056A7;fill:color(display-p3 0.0000 0.3373 0.6549);fill-opacity:1;"/>
<path d="M339.144 166.051C340.491 166.051 341.726 165.775 342.854 165.217C343.977 164.666 344.879 163.87 345.55 162.848C346.221 161.826 346.559 160.623 346.559 159.25V144.024H350.464V168.815H346.735V163.594H346.559C346.058 164.998 345.343 166.133 344.409 166.998C343.469 167.863 342.422 168.477 341.25 168.859C340.078 169.235 338.924 169.423 337.783 169.423C335.094 169.423 332.975 168.728 331.421 167.324C329.873 165.919 329.095 163.751 329.095 160.829V144.024H333V159.952C333 162.058 333.439 163.6 334.317 164.578C335.194 165.562 336.805 166.051 339.144 166.051Z" fill="#0056A7" style="fill:#0056A7;fill:color(display-p3 0.0000 0.3373 0.6549);fill-opacity:1;"/>
<path d="M378.24 149.377H378.415C378.885 147.942 379.587 146.794 380.528 145.936C381.455 145.071 382.502 144.431 383.662 144.024C384.815 143.616 385.962 143.409 387.103 143.409C389.767 143.409 391.811 144.13 393.246 145.56C394.675 146.995 395.396 149.158 395.396 152.054V168.815H391.497V152.843C391.497 150.737 391.102 149.201 390.331 148.236C389.554 147.277 387.993 146.788 385.655 146.788C383.637 146.788 381.951 147.365 380.584 148.524C379.224 149.678 378.547 151.352 378.547 153.552V168.815H374.641V152.843C374.641 150.737 374.253 149.201 373.457 148.236C372.667 147.277 371.106 146.788 368.768 146.788C367.445 146.788 366.242 147.058 365.164 147.597C364.079 148.142 363.227 148.926 362.594 149.947C361.973 150.969 361.653 152.173 361.653 153.552V168.815H357.748V144.024H361.478V149.377H361.697C362.167 147.942 362.851 146.794 363.759 145.936C364.662 145.071 365.684 144.431 366.812 144.024C367.934 143.616 369.069 143.409 370.21 143.409C372.435 143.409 374.228 143.898 375.582 144.882C376.942 145.86 377.832 147.359 378.24 149.377Z" fill="#0056A7" style="fill:#0056A7;fill:color(display-p3 0.0000 0.3373 0.6549);fill-opacity:1;"/>
</g>
<defs>
<clipPath id="clip0_261_65331">
<rect width="395.664" height="170" fill="white" style="fill:white;fill-opacity:1;" transform="translate(0.327637)"/>
</clipPath>
</defs>
</svg>
