<svg width="395" height="170" viewBox="0 0 395 170" fill="none" xmlns="http://www.w3.org/2000/svg">
<path d="M225.514 1.91815L203.104 106.658H176.012L198.415 1.91815H225.514ZM339.518 69.5484L353.778 30.2139L361.984 69.5484H339.518ZM369.744 106.658H394.805L372.941 1.91815H349.804C344.614 1.91815 340.214 4.9458 338.27 9.60326L297.619 106.658H326.066L331.72 91.024H366.478L369.744 106.658ZM299.03 72.4632C299.143 44.8194 260.792 43.2961 261.062 30.9473C261.137 27.18 264.723 23.1932 272.546 22.1715C276.445 21.6637 287.132 21.2688 299.274 26.8603L304.026 4.65119C297.513 2.27545 289.113 3.8147e-06 278.683 3.8147e-06C251.904 3.8147e-06 233.055 14.2419 232.892 34.6331C232.722 49.7025 246.35 58.1147 256.618 63.1357C267.174 68.2633 270.709 71.5543 270.678 76.149C270.603 83.176 262.253 86.2726 254.468 86.3979C240.84 86.6173 232.929 82.7246 226.623 79.7847L221.715 102.733C228.046 105.642 239.724 108.168 251.86 108.3C280.312 108.3 298.93 94.2335 299.03 72.4632ZM186.8 1.91815L142.896 106.658H114.249L92.6477 23.0679C91.3313 17.9215 90.1967 16.0347 86.2037 13.8658C79.6971 10.3304 68.9404 7.02066 59.4751 4.95834L60.1207 1.91815H106.225C112.105 1.91815 117.389 5.82338 118.718 12.5933L130.133 73.2091L158.328 1.91815H186.8Z" fill="white" style="fill:white;fill-opacity:1;"/>
<path d="M10.3993 138.934H4.29388V152.58H10.3993C12.913 152.58 14.8437 152.06 16.1851 151.019C17.5328 149.985 18.2098 148.224 18.2098 145.735C18.2098 143.278 17.5328 141.535 16.1851 140.495C14.8437 139.448 12.913 138.934 10.3993 138.934ZM0 168.815V135.467H11.0137C14.5804 135.467 17.42 136.314 19.5262 138.012C21.6324 139.711 22.6855 142.269 22.6855 145.691C22.6855 149.139 21.6324 151.715 19.5262 153.389C17.42 155.075 14.5804 155.915 11.0137 155.915H4.29388V168.815H0Z" fill="white" style="fill:white;fill-opacity:1;"/>
<path d="M32.4204 134.151H28.5151V168.815H32.4204V134.151Z" fill="white" style="fill:white;fill-opacity:1;"/>
<path d="M53.9212 160.478V155.345C53.4573 155.752 52.6299 156.116 51.4452 156.423C50.2604 156.724 48.7936 157.043 47.0322 157.363C45.5466 157.595 44.3367 158.034 43.4153 158.679C42.4938 159.319 42.03 160.466 42.03 162.102C42.03 163.594 42.4625 164.697 43.3275 165.412C44.1926 166.133 45.3836 166.49 46.9005 166.49C48.3674 166.49 49.621 166.183 50.6741 165.568C51.7272 164.954 52.5359 164.189 53.0938 163.262C53.6454 162.346 53.9212 161.412 53.9212 160.478ZM39.7984 149.509L40.2309 145.691C41.1712 145.045 42.3371 144.506 43.7412 144.068C45.1516 143.629 46.6874 143.409 48.3486 143.409C51.5392 143.409 53.9087 144.043 55.4632 145.296C57.0115 146.55 57.7888 148.631 57.7888 151.527V168.815H54.0528V164.076H53.8836C53.2379 165.919 52.2413 167.273 50.8998 168.138C49.5521 168.997 47.8722 169.423 45.8474 169.423C44.4747 169.423 43.2084 169.173 42.055 168.665C40.9016 168.151 39.9676 167.38 39.2718 166.339C38.5635 165.299 38.2188 163.976 38.2188 162.365C38.2188 160.76 38.551 159.463 39.228 158.485C39.8987 157.501 40.839 156.749 42.055 156.222C43.2711 155.696 44.7254 155.288 46.4241 154.993C48.499 154.642 50.1413 154.323 51.3574 154.028C52.5735 153.74 53.4385 153.339 53.9651 152.843V151.703C53.9651 149.891 53.5514 148.575 52.7177 147.753C51.884 146.939 50.3294 146.525 48.0414 146.525C46.5809 146.525 45.1391 146.769 43.7224 147.277C42.2995 147.772 41.0207 148.518 39.8862 149.509H39.7984Z" fill="white" style="fill:white;fill-opacity:1;"/>
<path d="M70.3822 162.146C70.3822 163.732 70.7144 164.785 71.3914 165.324C72.0621 165.869 72.9397 166.139 74.0241 166.139C75.0145 166.139 75.8796 166.051 76.613 165.875C77.3401 165.7 77.9419 165.499 78.4058 165.261H78.5374L78.1926 168.552C77.7476 168.784 77.0894 168.991 76.2181 169.166C75.3405 169.342 74.4441 169.423 73.5352 169.423C71.3412 169.423 69.6174 168.909 68.3574 167.875C67.1038 166.835 66.4707 165.13 66.4707 162.76V147.277H61.9072L62.4338 144.682L66.4707 144.111V138.802L70.3822 138.232V144.024H77.967L77.4843 147.277H70.3822V162.146Z" fill="white" style="fill:white;fill-opacity:1;"/>
<path d="M86.9684 144.024V168.815H83.0569V144.024H86.9684ZM82.5742 137.968C82.5742 137.329 82.7999 136.796 83.2575 136.364C83.7088 135.944 84.2855 135.731 84.9938 135.731C85.6896 135.731 86.2789 135.944 86.7427 136.364C87.2129 136.796 87.4448 137.329 87.4448 137.968C87.4448 138.645 87.2129 139.184 86.7427 139.617C86.2789 140.037 85.6896 140.25 84.9938 140.25C84.2855 140.25 83.7088 140.037 83.2575 139.617C82.7999 139.184 82.5742 138.645 82.5742 137.968Z" fill="white" style="fill:white;fill-opacity:1;"/>
<path d="M107.103 143.409C109.798 143.409 111.904 144.099 113.421 145.472C114.945 146.845 115.703 149.001 115.703 151.922V168.815H111.842V153.025C111.842 150.938 111.397 149.383 110.507 148.343C109.61 147.308 107.993 146.788 105.655 146.788C104.282 146.788 103.028 147.064 101.906 147.622C100.778 148.18 99.8878 148.97 99.2296 149.991C98.5715 151.013 98.2392 152.229 98.2392 153.633V168.815H94.334V144.024H98.07V149.289H98.2831C98.7532 147.885 99.4616 146.757 100.414 145.892C101.361 145.027 102.433 144.4 103.618 143.999C104.802 143.61 105.962 143.409 107.103 143.409Z" fill="white" style="fill:white;fill-opacity:1;"/>
<path d="M132.816 166.051C134.164 166.051 135.398 165.775 136.527 165.217C137.649 164.666 138.552 163.87 139.222 162.848C139.893 161.826 140.231 160.623 140.231 159.25V144.024H144.137V168.815H140.407V163.594H140.231C139.73 164.998 139.015 166.133 138.081 166.998C137.141 167.863 136.094 168.477 134.922 168.859C133.75 169.235 132.597 169.423 131.456 169.423C128.766 169.423 126.648 168.728 125.093 167.324C123.545 165.919 122.768 163.751 122.768 160.829V144.024H126.673V159.952C126.673 162.058 127.112 163.6 127.989 164.578C128.867 165.562 130.478 166.051 132.816 166.051Z" fill="white" style="fill:white;fill-opacity:1;"/>
<path d="M171.912 149.377H172.087C172.558 147.941 173.26 146.794 174.2 145.936C175.128 145.071 176.174 144.431 177.334 144.024C178.488 143.616 179.635 143.409 180.776 143.409C183.44 143.409 185.483 144.13 186.919 145.559C188.348 146.995 189.069 149.158 189.069 152.054V168.815H185.17V152.843C185.17 150.737 184.775 149.201 184.004 148.236C183.226 147.277 181.666 146.788 179.328 146.788C177.309 146.788 175.623 147.365 174.256 148.524C172.896 149.678 172.219 151.352 172.219 153.552V168.815H168.314V152.843C168.314 150.737 167.925 149.201 167.129 148.236C166.339 147.277 164.778 146.788 162.44 146.788C161.118 146.788 159.914 147.058 158.836 147.597C157.752 148.142 156.899 148.926 156.266 149.947C155.645 150.969 155.326 152.173 155.326 153.552V168.815H151.42V144.024H155.15V149.377H155.37C155.84 147.941 156.523 146.794 157.432 145.936C158.334 145.071 159.356 144.431 160.485 144.024C161.607 143.616 162.741 143.409 163.882 143.409C166.107 143.409 167.9 143.898 169.254 144.882C170.614 145.86 171.504 147.359 171.912 149.377Z" fill="white" style="fill:white;fill-opacity:1;"/>
<path d="M218.951 165.524C221.471 165.524 223.276 165.01 224.367 163.97C225.464 162.929 226.015 161.356 226.015 159.25C226.015 157.118 225.438 155.526 224.304 154.492C223.163 153.451 221.377 152.931 218.951 152.931H210.219V165.524H218.951ZM218.336 138.758H210.219V149.772H218.336C222.461 149.772 224.523 147.916 224.523 144.199C224.523 142.325 223.997 140.952 222.944 140.075C221.891 139.197 220.355 138.758 218.336 138.758ZM205.962 168.815V135.467H219.389C222.311 135.467 224.642 136.22 226.391 137.724C228.128 139.235 228.999 141.215 228.999 143.673C228.999 145.603 228.366 147.214 227.112 148.499C225.852 149.791 224.304 150.581 222.461 150.869V151.001C224.862 151.264 226.792 152.129 228.272 153.589C229.751 155.056 230.485 157.012 230.485 159.469C230.485 161.224 230.115 162.81 229.394 164.233C228.66 165.65 227.551 166.772 226.059 167.587C224.567 168.408 222.636 168.815 220.267 168.815H205.962Z" fill="white" style="fill:white;fill-opacity:1;"/>
<path d="M247.165 166.051C248.512 166.051 249.747 165.775 250.869 165.217C251.997 164.666 252.9 163.87 253.571 162.848C254.248 161.826 254.58 160.623 254.58 159.25V144.024H258.485V168.815H254.756V163.594H254.58C254.079 164.998 253.364 166.133 252.43 166.998C251.49 167.863 250.437 168.477 249.271 168.859C248.099 169.235 246.945 169.423 245.804 169.423C243.109 169.423 240.99 168.728 239.442 167.324C237.887 165.919 237.116 163.751 237.116 160.829V144.024H241.021V159.952C241.021 162.058 241.454 163.6 242.338 164.578C243.209 165.562 244.82 166.051 247.165 166.051Z" fill="white" style="fill:white;fill-opacity:1;"/>
<path d="M265.061 150.737C265.061 149.101 265.469 147.741 266.271 146.656C267.073 145.572 268.164 144.763 269.543 144.218C270.916 143.679 272.496 143.409 274.282 143.409C275.799 143.409 277.153 143.56 278.338 143.848C279.522 144.143 280.419 144.431 281.039 144.726L281.209 148.28H281.083C280.582 147.929 279.936 147.616 279.146 147.333C278.356 147.058 277.51 146.838 276.608 146.682C275.692 146.519 274.865 146.437 274.106 146.437C272.439 146.437 271.123 146.688 270.157 147.183C269.186 147.678 268.703 148.662 268.703 150.123C268.703 151 268.916 151.696 269.342 152.21C269.769 152.724 270.396 153.138 271.236 153.458C272.063 153.784 273.091 154.116 274.326 154.467C275.987 154.962 277.454 155.439 278.714 155.896C279.967 156.347 280.952 156.993 281.679 157.846C282.393 158.698 282.744 159.952 282.744 161.619C282.744 164.164 281.917 166.101 280.25 167.43C278.576 168.765 276.282 169.423 273.354 169.423C271.693 169.423 270.132 169.242 268.684 168.884C267.236 168.515 266.039 168.038 265.111 167.455L264.798 163.638H264.936C265.926 164.54 267.217 165.236 268.797 165.7C270.377 166.17 271.881 166.402 273.317 166.402C275.304 166.402 276.764 166.082 277.705 165.437C278.639 164.791 279.102 163.769 279.102 162.365C279.102 161.456 278.87 160.76 278.4 160.259C277.936 159.764 277.253 159.344 276.363 159.012C275.467 158.673 274.357 158.309 273.01 157.933C271.511 157.495 270.17 157.05 268.966 156.598C267.769 156.147 266.816 155.476 266.114 154.599C265.418 153.721 265.061 152.436 265.061 150.737Z" fill="white" style="fill:white;fill-opacity:1;"/>
<path d="M292.316 144.024V168.815H288.411V144.024H292.316ZM287.935 137.968C287.935 137.329 288.16 136.796 288.612 136.364C289.063 135.944 289.64 135.731 290.342 135.731C291.05 135.731 291.627 135.944 292.103 136.364C292.567 136.796 292.799 137.329 292.799 137.968C292.799 138.645 292.567 139.184 292.103 139.617C291.627 140.037 291.05 140.25 290.342 140.25C289.64 140.25 289.063 140.037 288.612 139.617C288.16 139.184 287.935 138.645 287.935 137.968Z" fill="white" style="fill:white;fill-opacity:1;"/>
<path d="M312.457 143.409C315.146 143.409 317.252 144.099 318.769 145.472C320.299 146.845 321.057 149.001 321.057 151.922V168.815H317.196V153.025C317.196 150.938 316.744 149.383 315.861 148.343C314.964 147.308 313.347 146.788 311.003 146.788C309.63 146.788 308.376 147.064 307.26 147.622C306.132 148.18 305.236 148.97 304.577 149.991C303.919 151.013 303.593 152.229 303.593 153.633V168.815H299.688V144.024H303.411V149.289H303.631C304.107 147.885 304.816 146.757 305.762 145.892C306.715 145.027 307.787 144.4 308.965 143.999C310.15 143.61 311.316 143.409 312.457 143.409Z" fill="white" style="fill:white;fill-opacity:1;"/>
<path d="M338.565 146.393C336.365 146.393 334.597 147.064 333.249 148.412C331.908 149.759 331.087 151.634 330.792 154.028H345.755V153.589C345.755 152.129 345.535 150.863 345.103 149.797C344.658 148.725 343.918 147.891 342.884 147.29C341.843 146.694 340.408 146.393 338.565 146.393ZM339.524 166.27C341.756 166.27 343.561 166.001 344.946 165.462C346.338 164.916 347.585 164.196 348.701 163.287H348.789L348.438 166.841C347.704 167.455 346.563 168.038 345.009 168.596C343.461 169.154 341.53 169.423 339.217 169.423C336.703 169.423 334.503 168.878 332.61 167.762C330.729 166.647 329.256 165.117 328.203 163.155C327.15 161.193 326.624 158.961 326.624 156.442C326.624 153.928 327.144 151.69 328.184 149.728C329.219 147.772 330.642 146.23 332.441 145.102C334.24 143.974 336.271 143.409 338.521 143.409C341.122 143.409 343.235 143.873 344.858 144.795C346.482 145.716 347.667 147.001 348.413 148.65C349.159 150.305 349.535 152.229 349.535 154.423C349.535 154.718 349.516 155.069 349.491 155.476C349.459 155.89 349.416 156.253 349.353 156.573H330.617C330.617 156.604 330.623 156.636 330.642 156.661C330.654 156.686 330.648 156.717 330.617 156.749C330.679 159.707 331.5 162.027 333.08 163.732C334.66 165.424 336.804 166.27 339.524 166.27Z" fill="white" style="fill:white;fill-opacity:1;"/>
<path d="M354.537 150.737C354.537 149.101 354.938 147.741 355.747 146.656C356.549 145.572 357.64 144.763 359.012 144.218C360.385 143.679 361.965 143.409 363.751 143.409C365.268 143.409 366.622 143.56 367.813 143.848C368.992 144.143 369.894 144.431 370.509 144.726L370.684 148.28H370.553C370.051 147.929 369.412 147.616 368.622 147.333C367.832 147.058 366.986 146.838 366.077 146.682C365.168 146.519 364.334 146.437 363.576 146.437C361.908 146.437 360.592 146.688 359.627 147.183C358.661 147.678 358.179 148.662 358.179 150.123C358.179 151 358.392 151.696 358.812 152.21C359.244 152.724 359.865 153.138 360.705 153.458C361.539 153.784 362.567 154.116 363.795 154.467C365.463 154.962 366.923 155.439 368.183 155.896C369.437 156.347 370.427 156.993 371.148 157.846C371.863 158.698 372.22 159.952 372.22 161.619C372.22 164.164 371.386 166.101 369.719 167.43C368.051 168.765 365.757 169.423 362.83 169.423C361.162 169.423 359.602 169.242 358.16 168.884C356.706 168.515 355.515 168.038 354.581 167.455L354.273 163.638H354.405C355.395 164.54 356.687 165.236 358.266 165.7C359.846 166.17 361.351 166.402 362.786 166.402C364.773 166.402 366.24 166.082 367.174 165.437C368.114 164.791 368.578 163.769 368.578 162.365C368.578 161.456 368.346 160.76 367.87 160.259C367.406 159.764 366.729 159.344 365.832 159.012C364.942 158.673 363.827 158.309 362.479 157.933C360.987 157.495 359.639 157.05 358.442 156.598C357.238 156.147 356.292 155.476 355.59 154.599C354.888 153.721 354.537 152.436 354.537 150.737Z" fill="white" style="fill:white;fill-opacity:1;"/>
<path d="M377.085 150.737C377.085 149.101 377.492 147.741 378.301 146.656C379.103 145.572 380.187 144.763 381.566 144.218C382.939 143.679 384.519 143.409 386.305 143.409C387.822 143.409 389.176 143.56 390.361 143.848C391.546 144.143 392.442 144.431 393.063 144.726L393.232 148.28H393.107C392.605 147.929 391.96 147.616 391.17 147.333C390.38 147.058 389.54 146.838 388.631 146.682C387.722 146.519 386.888 146.437 386.13 146.437C384.463 146.437 383.146 146.688 382.181 147.183C381.209 147.678 380.727 148.662 380.727 150.123C380.727 151 380.94 151.696 381.366 152.21C381.792 152.724 382.419 153.138 383.259 153.458C384.086 153.784 385.114 154.116 386.349 154.467C388.01 154.962 389.477 155.439 390.737 155.896C391.991 156.347 392.975 156.993 393.702 157.846C394.417 158.698 394.774 159.952 394.774 161.619C394.774 164.164 393.94 166.101 392.273 167.43C390.599 168.765 388.305 169.423 385.378 169.423C383.717 169.423 382.156 169.242 380.708 168.884C379.26 168.515 378.062 168.038 377.135 167.455L376.821 163.638H376.959C377.95 164.54 379.241 165.236 380.821 165.7C382.4 166.17 383.905 166.402 385.34 166.402C387.327 166.402 388.788 166.082 389.728 165.437C390.662 164.791 391.126 163.769 391.126 162.365C391.126 161.456 390.894 160.76 390.424 160.259C389.96 159.764 389.283 159.344 388.387 159.012C387.49 158.673 386.381 158.309 385.033 157.933C383.541 157.495 382.193 157.05 380.99 156.598C379.793 156.147 378.84 155.476 378.138 154.599C377.442 153.721 377.085 152.436 377.085 150.737Z" fill="white" style="fill:white;fill-opacity:1;"/>
</svg>
